<?xml version="1.0" encoding="utf-8"?>
<!-- Generator: Adobe Illustrator 25.2.0, SVG Export Plug-In . SVG Version: 6.00 Build 0)  -->
<svg version="1.1" id="Layer_1" xmlns="http://www.w3.org/2000/svg" xmlns:xlink="http://www.w3.org/1999/xlink" x="0px" y="0px"
	 viewBox="0 0 12 12" style="enable-background:new 0 0 12 12;" xml:space="preserve">
<path d="M11,5.2l-2.9-1L6.9,2.7C6.7,2.4,6.4,2.2,6,2.2H3c-0.4,0-0.7,0.2-0.9,0.5l-1,1.5C0.9,4.5,0.7,4.9,0.8,5.3v3
	c0,0.2,0.2,0.4,0.4,0.4h0.8c0.2,0.8,1,1.3,1.8,1.1c0.5-0.1,0.9-0.5,1.1-1.1h2.4c0.2,0.8,1,1.3,1.8,1.1c0.5-0.1,0.9-0.5,1.1-1.1h0.8
	c0.2,0,0.4-0.2,0.4-0.4V5.6C11.2,5.4,11.2,5.3,11,5.2z M3.4,9C3,9,2.6,8.7,2.6,8.2c0-0.4,0.3-0.8,0.8-0.8s0.7,0.3,0.7,0.8
	C4.1,8.7,3.8,9,3.4,9z M8.6,9C8.2,9,7.9,8.7,7.9,8.2c0-0.4,0.3-0.8,0.8-0.8s0.8,0.3,0.8,0.8C9.4,8.7,9,9,8.6,9z M10.5,7.9h-0.4
	c-0.2-0.8-1-1.3-1.8-1.1C7.7,6.9,7.3,7.3,7.2,7.9H4.8C4.6,7.1,3.8,6.6,3,6.8C2.5,6.9,2.1,7.3,1.9,7.9H1.5V5.3c0-0.2,0.1-0.4,0.2-0.6
	l1-1.5C2.8,3.1,2.9,3,3,3h3c0.1,0,0.2,0,0.3,0.1l1.3,1.6c0,0.1,0.1,0.1,0.2,0.1l2.8,1V7.9z"/>
</svg>
