<?xml version="1.0" encoding="utf-8"?>
<!-- Generator: Adobe Illustrator 25.2.0, SVG Export Plug-In . SVG Version: 6.00 Build 0)  -->
<svg version="1.1" id="Layer_1" xmlns="http://www.w3.org/2000/svg" xmlns:xlink="http://www.w3.org/1999/xlink" x="0px" y="0px"
	 viewBox="0 0 154.6 131.4" style="enable-background:new 0 0 154.6 131.4;" xml:space="preserve">
<g>
	<path d="M138.5,53c-0.6,1-1.7,1.6-2.9,1.5c-1.6-0.1-3.1,0-4.7,0c-0.8-0.1-1.6,0.4-1.9,1.2c-2.2,5.2-4.6,10.3-6.8,15.4
		c-0.4,1.1-1.5,1.9-2.7,1.9c-6.3,0.5-12.6,1.1-18.9,1.7c-0.3,0-0.6,0.1-0.9,0.2v12.4c1.1,0,2.3,0,3.4,0c1.9,0,2.6,0.7,2.6,2.6
		c0,1.9,0,3.6,0,5.5c1.2,0,2.5,0,3.7-0.1c0.3,0,0.7-0.6,0.8-1c1.7-6.5,8.4-10.4,14.9-8.7c4.2,1.1,7.5,4.3,8.7,8.5
		c0.1,0.4,0.2,0.8,0.3,1.3c1.5,0.2,3.4-0.5,4.2,1.5V98c-1,1.7-2.6,1.4-4.2,1.4c-0.3,0.8-0.5,1.6-0.8,2.4c-1.9,5.1-7,8.3-12.5,7.8
		c-5.2-0.5-9.5-4.2-10.8-9.3c-0.2-0.7-0.5-0.9-1.1-0.9c-3.7,0-7.5,0-11.2,0c-3.2,0-5.5-1.6-6.2-4.4c-0.9-2.9,0.5-6,3.2-7.3
		c0.6-0.3,0.7-0.8,0.7-1.3c0-4.3,0-8.5,0-12.8c0-2,0.6-2.6,2.7-2.8c6.5-0.6,12.9-1.2,19.4-1.7c0.7,0,1.3-0.5,1.5-1.1
		c2.3-5.2,4.6-10.3,6.9-15.5c0.4-1.3,1.7-2.2,3.1-2c2.1,0.1,4.3,0.1,6.5,0c1.2-0.2,2.3,0.4,2.9,1.5L138.5,53z M122.1,105.5
		c4.5,0,8.2-3.6,8.2-8.1c0-4.5-3.6-8.2-8.1-8.2s-8.2,3.6-8.2,8.1c0,0,0,0,0,0.1C114.1,101.8,117.7,105.4,122.1,105.5z M101.7,91.2
		c-1.5,0-3,0-4.4,0c-1.2,0-1.5,0.8-1.6,1.8c-0.1,1.2,0.4,2.1,1.3,2.2c1.5,0.1,3.1,0,4.7,0L101.7,91.2z"/>
	<path d="M138.5,71.5c-0.6,1-1.7,1.6-2.9,1.4c-1.6-0.1-3.2,0-4.8,0c-2.1,0-2.9-1.3-2.2-3.3c1.1-2.9,2.3-5.8,3.5-8.7
		c0.4-1.1,0.8-2.2,2.2-2.3c1.6-0.1,3.2-0.4,4.2,1.4v1.2l-2,1.4c-0.4,0.3-0.9,0.5-1.1,1c-0.4,0.8-0.8,1.7-1,2.5
		c-0.3,0.9-0.7,1.7-1.1,2.7c1,0,1.7,0,2.4,0c1.1-0.2,2.3,0.4,2.7,1.5L138.5,71.5z"/>
	<path d="M32.3,76.9V17.8c-0.5,0-0.9-0.1-1.3-0.1H19c-0.5,0-1,0-1.4-0.1c-1.1-0.2-1.8-1.3-1.5-2.3c0.1-0.7,0.7-1.3,1.4-1.5
		c0.5-0.1,1-0.2,1.5-0.2c4.8,0,9.6,0,14.4,0c2.5,0,3.1,0.6,3.1,3v5.2h35.5c2.7,0,3.1,0.3,3.5,3c1.2,7.9,2.4,15.8,3.7,23.6
		c0.1,0.7,0.5,1.3,1,1.8c4,4.2,3.4,2.4,3.4,8.3c0,9.2,0,18.5,0,27.7c0,0.6,0,1.1,0.7,1.6c2.7,1.3,4,4.3,3.2,7.2
		c-0.7,2.7-3.3,4.6-6.1,4.4c-4,0-8,0-12,0c-0.8-0.1-1.6,0.4-1.9,1.1c-3.1,5.9-8,9-14.6,9s-11.5-3.2-14.6-9.2c-0.2-0.7-0.9-1.1-1.6-1
		c-5.8,0-11.6,0-17.4,0c-0.4,0-0.8,0-1.2,0c-1.1-0.1-1.9-1-1.9-2.1c0-1.1,0.9-2,2-2c0,0,0.1,0,0.1,0c3,0,6.1,0,9.1,0h9.3
		c0-1.3-0.1-2.6,0-3.8c0.8-8.9,8.8-15.5,17.7-14.6c5.7,0.5,10.7,4.1,13.1,9.2c0.2,0.7,0.9,1.1,1.6,1c3.3,0,6.7,0,10.2,0
		c0-0.5,0.1-0.9,0.1-1.3c0-9.8,0-19.6,0-29.4c0-0.7-0.3-1.3-0.8-1.8c-3.2-3.4-3.2-3.4-3.9-7.9c-1-6.9-2.1-13.7-3.2-20.6h-35v51.7
		c0,2.9-0.4,3.4-3.4,3.4H19.1c-0.3,0-0.6,0-1,0c-1.1,0-2.1-0.9-2.1-2c0-1.1,0.9-2.1,2-2.1c0,0,0.1,0,0.1,0c2.4,0,4.9,0,7.3,0
		L32.3,76.9z M52.8,105.5c6.8,0,12.2-5.5,12.2-12.3c0-6.8-5.5-12.2-12.3-12.2c-6.8,0-12.2,5.5-12.2,12.3
		C40.6,100,46,105.5,52.8,105.5L52.8,105.5z M69.2,95.3c0.3,0,0.6,0.1,0.9,0.1c3.7,0,7.3,0,11,0c1.5,0,2.3-0.8,2.3-2
		c0-1.3-0.8-2.1-2.2-2.1c-3.7,0-7.3,0-11,0c-0.3,0-0.6,0-0.9,0.1V95.3z"/>
	<path d="M55.7,52.4H45.4c-2.1,0-2.8-0.7-2.8-2.8v-17c0-2,0.7-2.7,2.6-2.7c6.4,0,12.8,0,19.3,0c1.8,0,2.5,0.5,2.7,2.4
		c0.7,5.9,1.3,11.7,2,17.6c0.2,1.6-0.7,2.5-2.6,2.5C62.9,52.5,59.3,52.4,55.7,52.4z M46.7,34.1v14.1h18.1l-1.6-14.1H46.7z"/>
	<path d="M94.1,50.7c-0.9,3.6-1.7,6.8-2.5,10c-0.3,1-0.8,1.9-1.9,2c-1.5,0.1-2.4-1.2-2-3c0.9-3.8,1.9-7.6,2.9-11.5
		c0.3-1.3,0.7-2.7,1-4.1c0.1-1,0.9-1.8,1.9-1.8c1-0.1,1.9,0.6,2.2,1.6c1.5,3.4,2.9,6.7,4.3,10.1c0.2,0.4,0.3,0.8,0.6,1.3l11.4-9.8
		c0.3-0.2,0.5-0.6,0.8-0.7c0.7-0.2,1.6-0.4,2.1-0.2c0.6,0.4,1,1.1,1.1,1.9c-0.1,2.2-0.4,4.4-0.7,6.5c-0.4,3.1-0.8,6.2-1.2,9.4
		c-0.2,1.4-0.8,2.1-1.9,2.3c-1.3,0.2-2.4-0.9-2.2-2.5c0.3-3.1,0.7-6.1,1.1-9.1c0.1-0.5,0.1-0.9,0.2-1.6c-0.5,0.4-0.8,0.6-1.1,0.9
		l-8.6,7.4c-1.7,1.5-3.1,1.2-4-0.9C96.5,56.2,95.4,53.6,94.1,50.7z"/>
	<path d="M93.9,111.9c1.4-1.8,2.6-3.4,3.8-5s2.4-1.7,3.8-0.3c1.8,1.8,3.6,3.6,5.4,5.4c1.1,1.1,1.2,2.3,0.3,3.2
		c-0.9,0.9-2.1,0.9-3.2-0.3c-1.3-1.3-2.6-2.7-4.1-4.1c-1,1.3-1.8,2.4-2.7,3.6c-0.6,0.8-1.1,1.5-1.7,2.3c-1.4,1.8-3,1.6-4-0.3
		c-1.3-2.5-2.5-5-3.7-7.5l-1-1.9c-0.4,0.3-0.8,0.6-1.1,0.9l-10.7,9.1l-0.2,0.2c-0.6,0.7-1.6,1-2.5,0.6c-1-0.4-1.3-1.3-1.3-2.4
		c0-3.1,0-6.1,0-9.2c0-0.1,0-0.2,0-0.4c0-1.2,0.9-2.1,2.1-2.1c0,0,0,0,0.1,0c1.1,0,2,1,1.9,2.1c0,0,0,0,0,0.1c0.1,1.4,0,2.8,0,4.2
		c0,0.4,0,0.8,0.1,1.4l4-3.4c2.2-1.9,4.4-3.7,6.5-5.6c1.5-1.3,2.8-1,3.7,0.8C91,105.9,92.4,108.8,93.9,111.9z"/>
	<path d="M75.2,78c0,1,0,2,0,3c0,1.1-0.8,2-1.8,2c0,0,0,0-0.1,0c-1,0.1-2-0.7-2.1-1.7c0-0.1,0-0.1,0-0.2c-0.1-2.1-0.1-4.2,0-6.3
		c0-1.1,0.9-1.9,1.9-1.9c0,0,0.1,0,0.1,0c1.1,0,2,0.9,2,2c0,0.1,0,0.2,0,0.4L75.2,78L75.2,78z"/>
	<path d="M52.8,101.4c-4.5,0-8.1-3.6-8.2-8.1c0-4.5,3.6-8.1,8.1-8.2c0,0,0,0,0,0c4.5,0,8.1,3.7,8.1,8.2
		C60.9,97.8,57.3,101.4,52.8,101.4z M52.7,97.3c2.3,0,4.1-1.8,4.1-4.1c0,0,0,0,0,0c-0.1-2.2-1.8-4-4.1-4c-2.3,0-4.1,1.8-4.1,4.1
		c0,0,0,0,0,0C48.7,95.6,50.5,97.3,52.7,97.3C52.7,97.3,52.7,97.3,52.7,97.3z"/>
</g>
</svg>
