<?xml version="1.0" encoding="utf-8"?>
<!-- Generator: Adobe Illustrator 25.2.0, SVG Export Plug-In . SVG Version: 6.00 Build 0)  -->
<svg version="1.1" id="Layer_1" xmlns="http://www.w3.org/2000/svg" xmlns:xlink="http://www.w3.org/1999/xlink" x="0px" y="0px"
	 viewBox="0 0 12 12" style="enable-background:new 0 0 12 12;" xml:space="preserve">
<path d="M11.5,4.9c0,0,0-0.1,0-0.1c0,0,0,0,0,0c0.2-0.9,0-1.8-0.6-2.5c-0.6-0.7-1.4-1.2-2.4-1.2h0c0,0-0.1,0-0.1,0h0
	C7.6,1.2,6.8,1.3,6,1.5L4.3,1.2h0C3.5,1,2.7,1.2,2,1.6c-0.4,0.2-0.8,0.6-1,1l0,0l0,0C0.2,3.6,0.2,5,0.9,6.1c0,0,0,0,0,0
	c0,0.1-0.1,0.1-0.1,0.2c0,0,0,0.1,0,0.1c0,0,0,0.1,0,0.1c0,0,0,0.1,0,0.1c0,0,0,0.1,0,0.1c0,0,0,0.1,0,0.1c0,0,0,0.1,0,0.1
	c0,0,0,0.1,0,0.1c0,0,0,0,0,0.1c0,0.1,0.1,0.1,0.1,0.2c0.2,0.2,0.4,0.4,0.7,0.5c0,0.3,0.1,0.6,0.4,0.9C2.2,8.9,2.5,9,2.8,9.1
	c0.1,0.2,0.2,0.4,0.3,0.5C3.3,9.8,3.5,9.9,3.8,10c0.1,0.2,0.2,0.4,0.4,0.6c0.2,0.2,0.5,0.3,0.8,0.3c0.2,0,0.4-0.1,0.6-0.2
	c0.3,0.2,0.6,0.2,0.9,0.2c0.3-0.1,0.6-0.3,0.8-0.6c0,0,0,0,0,0c0.3,0.1,0.7,0,0.9-0.2c0.2-0.1,0.4-0.4,0.5-0.6
	c0.3,0,0.7-0.1,0.9-0.3c0.3-0.2,0.4-0.6,0.4-1c0,0,0,0,0,0c0.2-0.1,0.4-0.2,0.5-0.3c0.4-0.4,0.4-1,0.2-1.4C11.1,6,11.3,5.5,11.5,4.9
	C11.5,5,11.5,5,11.5,4.9z M10.9,4.3c0,0.2-0.1,0.4-0.1,0.6l0,0c-0.1,0.3-0.3,0.6-0.5,0.9c-1.2-1-2.9-2.5-3-2.7C7,3,6.8,2.9,6.6,2.9
	c-0.1,0-0.1,0-0.2,0C6.1,3,5.5,3.2,5,3.4C4.8,3.5,4.6,3.3,4.5,3.1c0-0.1-0.1-0.2,0-0.3c0.1-0.1,0.2-0.2,0.3-0.2
	c1.2-0.4,2.4-0.6,3.6-0.7h0c0,0,0.1,0,0.1,0c0.3,0,0.6,0,0.8,0.2c0.4,0.2,0.7,0.4,1,0.8c0.2,0.3,0.4,0.6,0.5,0.9l0,0
	c0,0.1,0,0.2,0,0.3c0,0,0,0.1,0,0.1C10.9,4.2,10.9,4.2,10.9,4.3C10.9,4.3,10.9,4.3,10.9,4.3z M1.5,6.8C1.5,6.8,1.5,6.8,1.5,6.8
	c0-0.1,0-0.1,0-0.2c0,0,0,0,0-0.1c0,0,0-0.1,0-0.1c0,0,0,0,0-0.1c0,0,0-0.1,0.1-0.1l0,0l0.7-0.6C2.6,5.6,2.8,5.6,3,5.8c0,0,0,0,0,0
	C3.1,5.9,3.1,6,3,6.1L1.9,7.1c-0.2,0-0.3-0.1-0.4-0.2C1.5,6.9,1.5,6.9,1.5,6.8z M2.4,7.7l1.2-1.2l0,0c0.1,0,0.1,0,0.2,0
	C4,6.5,4,6.6,4.1,6.6c0.1,0.1,0.1,0.1,0.1,0.2c0,0.1,0,0.2-0.1,0.2c0,0,0,0,0,0L3,8.3c-0.2,0-0.3-0.1-0.5-0.2C2.4,8,2.4,7.8,2.4,7.7
	z M3.5,8.9l1.3-1.2c0.1,0,0.2,0.1,0.2,0.1C5,7.8,5.1,7.9,5.1,8c0,0,0,0.1,0,0.1L4,9.2c-0.1,0-0.3,0-0.4-0.1C3.6,9,3.5,8.9,3.5,8.9z
	 M4.7,10C4.6,9.9,4.5,9.9,4.5,9.8l1-1c0.1,0,0.1,0.1,0.2,0.1C5.8,8.9,5.8,9,5.8,9c0,0,0,0.1,0,0.1c0,0.2-0.1,0.3-0.2,0.4L5.3,9.9h0
	c0,0,0,0,0,0c-0.1,0.1-0.2,0.2-0.4,0.2C4.8,10.1,4.7,10.1,4.7,10z M6.3,10.1c-0.1,0-0.1,0-0.2,0l0,0l0,0l0,0
	c0.1-0.1,0.2-0.3,0.3-0.5l0.2,0.2c0,0,0,0.1,0,0.1C6.6,10,6.5,10.1,6.3,10.1z M8.7,8.7L8.1,8c-0.1-0.2-0.4-0.2-0.5,0
	C7.4,8,7.4,8.2,7.4,8.3c0,0,0,0.1,0.1,0.1L8,9.1c0,0,0,0.1,0,0.1c0,0.1-0.1,0.2-0.2,0.3C7.7,9.5,7.6,9.5,7.4,9.5L7,9
	C6.9,8.9,6.7,8.9,6.6,8.9c0,0,0-0.1,0-0.1C6.5,8.6,6.4,8.5,6.2,8.3C6.1,8.2,6,8.1,5.9,8.1c0-0.1,0-0.1,0-0.2c0-0.3-0.2-0.5-0.4-0.7
	C5.4,7.1,5.2,7,5,6.9c0-0.1,0-0.1,0-0.2c0-0.3-0.2-0.5-0.3-0.7C4.5,5.9,4.3,5.8,4,5.7c-0.1,0-0.2,0-0.2,0c0-0.1-0.1-0.3-0.2-0.4
	C3.2,4.8,2.4,4.7,1.9,5.1c0,0,0,0,0,0l0,0L1.4,5.5C1,4.7,1,3.7,1.6,3l0,0C1.8,2.7,2,2.4,2.4,2.2c0.6-0.3,1.2-0.4,1.9-0.3l0.2,0
	C4.1,2.1,3.9,2.3,3.8,2.5c-0.1,0.3-0.1,0.6,0,0.9C4.1,4,4.7,4.3,5.3,4.1c0.5-0.2,1.1-0.4,1.3-0.4c0,0,0.1,0,0.1,0
	C6.8,3.9,9,5.8,10,6.6L10,6.7c0.1,0.2,0.1,0.4-0.1,0.6C9.9,7.3,9.8,7.4,9.8,7.4L9.1,6.7C9,6.6,8.7,6.6,8.6,6.8
	c-0.1,0.1-0.1,0.4,0,0.5l0.6,0.6c0,0,0,0,0,0l0,0c0,0.1,0,0.2,0.1,0.2c0,0.1,0,0.3-0.1,0.4C9,8.7,8.9,8.7,8.7,8.7
	C8.7,8.7,8.7,8.7,8.7,8.7z"/>
</svg>
