<?xml version="1.0" encoding="utf-8"?>
<!-- Generator: Adobe Illustrator 25.2.0, SVG Export Plug-In . SVG Version: 6.00 Build 0)  -->
<svg version="1.1" id="Layer_1" xmlns="http://www.w3.org/2000/svg" xmlns:xlink="http://www.w3.org/1999/xlink" x="0px" y="0px"
	 viewBox="0 0 12 12" style="enable-background:new 0 0 12 12;" xml:space="preserve">
<path d="M4.3,10h3.5l0.5-2H3.8C3.8,8,4.3,10,4.3,10z M4.3,11c-0.2,0-0.4-0.1-0.6-0.2c-0.2-0.1-0.3-0.3-0.3-0.6L2.8,8h6.5l-0.6,2.2
	c-0.1,0.2-0.2,0.4-0.4,0.6C8.2,10.9,8,11,7.7,11H4.3z M2.5,7h7V6h-7V7z M3.4,1c0.7,0.1,1.4,0.4,1.9,1C5.7,2.6,6,3.2,6,4
	c0-0.8,0.3-1.4,0.8-2c0.5-0.6,1.1-0.9,1.9-1c0.1,0,0.2,0,0.3,0.1C9,1.2,9,1.3,9,1.4C8.9,2,8.6,2.6,8.2,3.1c-0.5,0.5-1,0.8-1.7,0.9v1
	H10c0.1,0,0.3,0,0.4,0.1c0.1,0.1,0.1,0.2,0.1,0.4V7c0,0.3-0.1,0.5-0.3,0.7C10,7.9,9.8,8,9.5,8h-7C2.2,8,2,7.9,1.8,7.7
	C1.6,7.5,1.5,7.3,1.5,7V5.5c0-0.1,0-0.3,0.1-0.4C1.7,5,1.9,5,2,5h3.5v-1C4.8,3.8,4.3,3.5,3.8,3.1C3.4,2.6,3.1,2,3,1.4
	c0-0.1,0-0.2,0.1-0.3C3.2,1,3.3,1,3.4,1z"/>
</svg>
