<?xml version="1.0" encoding="utf-8"?>
<!-- Generator: Adobe Illustrator 25.2.0, SVG Export Plug-In . SVG Version: 6.00 Build 0)  -->
<svg version="1.1" id="Layer_1" xmlns="http://www.w3.org/2000/svg" xmlns:xlink="http://www.w3.org/1999/xlink" x="0px" y="0px"
	 viewBox="0 0 12 12" style="enable-background:new 0 0 12 12;" xml:space="preserve">
<path d="M10.8,3.3c-0.2-0.4-0.4-0.7-0.7-1c-0.3-0.3-0.6-0.5-1-0.7C8.8,1.5,8.4,1.5,8,1.5c-0.6,0-1.1,0.2-1.6,0.5
	C6.2,2,6.1,2.1,6,2.2C5.9,2.1,5.8,2,5.7,1.9C5.2,1.6,4.6,1.5,4,1.5c-0.4,0-0.8,0.1-1.2,0.2c-0.4,0.2-0.7,0.4-1,0.7
	C1.6,2.6,1.3,3,1.2,3.3C1,3.7,0.9,4.1,0.9,4.5c0,0.4,0.1,0.8,0.2,1.2c0.1,0.3,0.3,0.7,0.6,1.1C2.1,7.4,2.7,8,3.3,8.6
	c1.1,1,2.2,1.7,2.2,1.7l0.3,0.2c0.1,0.1,0.3,0.1,0.4,0l0.3-0.2c0,0,1.1-0.7,2.2-1.7C9.3,8,9.9,7.4,10.3,6.8c0.2-0.4,0.4-0.7,0.6-1.1
	c0.2-0.4,0.2-0.8,0.2-1.2C11.1,4.1,11,3.7,10.8,3.3z M6,9.5c0,0-4.2-2.7-4.2-5c0-1.2,1-2.2,2.2-2.2c0.9,0,1.6,0.5,2,1.2
	c0.4-0.7,1.1-1.2,2-1.2c1.2,0,2.2,1,2.2,2.2C10.2,6.9,6,9.5,6,9.5z"/>
</svg>
