<?xml version="1.0" encoding="utf-8"?>
<!-- Generator: Adobe Illustrator 27.7.0, SVG Export Plug-In . SVG Version: 6.00 Build 0)  -->
<svg version="1.1" id="Capa_1" xmlns="http://www.w3.org/2000/svg" xmlns:xlink="http://www.w3.org/1999/xlink" x="0px" y="0px"
	 viewBox="0 0 800 800" style="enable-background:new 0 0 800 800;" xml:space="preserve">
<g>
	<path d="M254.1,352c-26.5,0-48,21.5-48,48s21.5,48,48,48c26.5,0,48-21.4,48-48C302.1,373.5,280.6,352,254.1,352z M402.5,352
		c-26.5,0-48,21.5-48,48s21.5,48,48,48c26.5,0,48-21.4,48-48C450.5,373.5,429,352,402.5,352z M546,352c-26.5,0-48,21.5-48,48
		c0,26.5,21.5,48,48,48c26.5,0,48-21.4,48-48S572.5,352,546,352z"/>
</g>
</svg>
