<?xml version="1.0" encoding="utf-8"?>
<!-- Generator: Adobe Illustrator 27.2.0, SVG Export Plug-In . SVG Version: 6.00 Build 0)  -->
<svg version="1.1" id="Calque_1" xmlns="http://www.w3.org/2000/svg" xmlns:xlink="http://www.w3.org/1999/xlink" x="0px" y="0px"
	 viewBox="0 0 312.5 185.2" style="enable-background:new 0 0 312.5 185.2;" xml:space="preserve">
<style type="text/css">
	.st0{fill:#F5BA0C;}
	.st1{fill:#77551E;}
	.st2{fill:#F9D071;}
	.st3{fill:#C7941A;}
</style>
<path class="st0" d="M0,185.2c0,0,127.7-11.1,173.6-128c0,0,84.7,4.1,138.8-57.2v185.2H0z"/>
<path class="st1" d="M5,184.6c24-3.5,128.1-24.3,168.6-127.4c0,0,1.2,0.1,3.4,0.1c16.2,0,87.7-3.2,135.5-57.2l-7,17
	c-48,43.4-111.1,47-127.2,47.2c-25.1,59.7-71.1,91.2-105.8,107.2c-5.5,2.6-11,4.8-16.2,6.8L5,184.6z"/>
<path class="st0" d="M106.2,185.2c0,0,61.3-18.2,90.9-90.2c0,0,59.7,12.8,115.4-95v185.2H106.2z"/>
<polyline class="st2" points="305.5,185.2 305.5,26.6 312.5,0 312.5,185.2 "/>
<path class="st3" d="M106.2,185.2c1.9-0.6,61.7-19.3,90.9-90.2c2,0.4,4.1,0.5,6.1,0.5c16.6,0,64.2-8.4,109.2-95.5l-7,26.6
	c-42.2,67.9-84.7,75.9-102.2,75.9c-0.6,0-1.2,0-1.7,0c-12.3,28.1-32,52.4-56.9,70.4c-2.8,2-5.5,3.8-8.1,5.4L106.2,185.2z"/>
</svg>
