<?xml version="1.0" encoding="utf-8"?>
<!-- Generator: Adobe Illustrator 25.2.0, SVG Export Plug-In . SVG Version: 6.00 Build 0)  -->
<svg version="1.1" id="Layer_1" xmlns="http://www.w3.org/2000/svg" xmlns:xlink="http://www.w3.org/1999/xlink" x="0px" y="0px"
	 viewBox="0 0 12 12" style="enable-background:new 0 0 12 12;" xml:space="preserve">
<path d="M8.6,4.2V3.9c0-1.2-1.8-2.1-4.1-2.1S0.4,2.8,0.4,3.9v1.9c0,1,1.2,1.8,3,2v0.3c0,1.2,1.8,2.1,4.1,2.1s4.1-0.9,4.1-2.1V6.2
	C11.6,5.2,10.4,4.4,8.6,4.2z M10.9,6.2c0,0.6-1.4,1.3-3.4,1.3c-0.2,0-0.3,0-0.5,0c1-0.4,1.6-1,1.6-1.7V5C10,5.2,10.9,5.7,10.9,6.2z
	 M3.4,7V5.9C3.7,6,4.1,6,4.5,6c0.4,0,0.8,0,1.1-0.1V7C5.3,7.1,4.9,7.1,4.5,7.1C4.1,7.1,3.7,7.1,3.4,7z M7.9,5.2v0.7
	c0,0.4-0.6,0.8-1.5,1.1V5.8C7,5.6,7.5,5.4,7.9,5.2z M4.5,2.6c1.9,0,3.4,0.7,3.4,1.3S6.4,5.2,4.5,5.2S1.1,4.6,1.1,3.9
	S2.6,2.6,4.5,2.6z M1.1,5.8V5.2C1.5,5.4,2,5.6,2.6,5.8v1.1C1.7,6.6,1.1,6.2,1.1,5.8z M4.1,8.1V7.9l0.4,0c0.2,0,0.4,0,0.5,0
	C5.2,7.9,5.4,8,5.6,8v1.1C4.7,8.9,4.1,8.5,4.1,8.1z M6.4,9.3V8.2c0.4,0,0.7,0.1,1.1,0.1c0.4,0,0.8,0,1.1-0.1v1.1
	C7.9,9.4,7.1,9.4,6.4,9.3z M9.4,9.1V8c0.6-0.1,1.1-0.4,1.5-0.6v0.7C10.9,8.5,10.3,8.9,9.4,9.1z"/>
</svg>
