<?xml version="1.0" encoding="utf-8"?>
<!-- Generator: Adobe Illustrator 25.2.0, SVG Export Plug-In . SVG Version: 6.00 Build 0)  -->
<svg version="1.1" id="Layer_1" xmlns="http://www.w3.org/2000/svg" xmlns:xlink="http://www.w3.org/1999/xlink" x="0px" y="0px"
	 viewBox="0 0 12 12" style="enable-background:new 0 0 12 12;" xml:space="preserve">
<path d="M11.1,5.9L6.6,1.4L6.3,1.1c-0.1-0.1-0.4-0.1-0.5,0L0.9,5.9C0.8,6.1,0.7,6.3,0.7,6.5c0,0.4,0.3,0.7,0.8,0.7h0.5V11h8.1V7.2
	h0.5c0.2,0,0.4-0.1,0.5-0.2c0.1-0.1,0.2-0.3,0.2-0.5C11.3,6.2,11.2,6.1,11.1,5.9z M6.7,10.2H5.3V7.8h1.3V10.2z M9.2,6.4v3.8H7.4V7.5
	C7.4,7.2,7.2,7,6.9,7H5.1C4.8,7,4.6,7.2,4.6,7.5v2.7H2.8V6.4H1.7L6,2l0.3,0.3l4.1,4.1H9.2z"/>
</svg>
