<svg xmlns="http://www.w3.org/2000/svg" viewBox="0 0 312.47 185.19"><defs><style>.a{fill:#f5ba0c;}.b{fill:#f9d071;}.c{fill:#77551e;}.d{fill:#c7941a;}</style></defs><path class="a" d="M312.47,0S184.81,11.1,138.85,128c0,0-84.68-4.11-138.85,57.17V0Z"/><path class="b" d="M312.47,0h-.18l-.27,0c-.71.07-2.24.23-4.47.56h-.06L256.18,7H7V168.17l-7,17V0Z"/><path class="c" d="M307.49.62c-24,3.47-128.1,24.27-168.64,127.4,0,0-1.18-.06-3.35-.06-16.23,0-87.73,3.19-135.5,57.23l7-17c48-43.45,111.09-47,127.16-47.2C159.22,61.32,205.29,29.82,240,13.81,245.52,11.24,251,9,256.18,7Z"/><path class="a" d="M206.26,0S145,18.21,115.36,90.21c0,0-59.74-12.76-115.36,95V0Z"/><polygon class="b" points="206.26 0 206.22 0.01 175.94 7 7 7 7 158.6 0 185.19 0 0 206.26 0"/><path class="d" d="M206.22,0c-1.87.57-61.7,19.33-90.86,90.2a32.31,32.31,0,0,0-6.13-.47C92.62,89.74,45,98.08,0,185.19L7,158.6C49.2,90.66,91.75,82.74,109.23,82.74c.6,0,1.17,0,1.7,0a171.46,171.46,0,0,1,56.92-70.36c2.78-2,5.49-3.78,8.09-5.41Z"/></svg>