<?xml version="1.0" encoding="UTF-8"?>
<svg id="Calque_2" data-name="Calque 2" xmlns="http://www.w3.org/2000/svg" xmlns:xlink="http://www.w3.org/1999/xlink" viewBox="0 0 499.73 395.96">
  <defs>
    <style>
      .cls-1 {
        fill: #f39323;
      }

      .cls-2 {
        fill: #f39464;
      }

      .cls-3 {
        fill: #aa6216;
      }

      .cls-4 {
        fill: #2d9237;
      }

      .cls-5 {
        fill: #945215;
      }

      .cls-6 {
        fill: #643c17;
      }

      .cls-7 {
        fill: #f5ba0f;
      }

      .cls-8 {
        fill: #a1682e;
      }

      .cls-9 {
        fill: #141a29;
      }

      .cls-10 {
        fill: url(#Dégradé_sans_nom_3-2);
      }

      .cls-11 {
        fill: #e08758;
      }

      .cls-12 {
        fill: url(#Dégradé_sans_nom_3);
      }

      .cls-13 {
        fill: #fdeae3;
      }

      .cls-14 {
        fill: #bc6f15;
      }

      .cls-15 {
        fill: #f7b18a;
      }

      .cls-16 {
        fill: #010101;
        isolation: isolate;
        opacity: .5;
      }
    </style>
    <linearGradient id="Dégradé_sans_nom_3" data-name="Dégradé sans nom 3" x1="287.12" y1="115.32" x2="186.73" y2="33.58" gradientTransform="translate(20.18 373.24) rotate(-6.2) scale(1.01 -1.01)" gradientUnits="userSpaceOnUse">
      <stop offset="0" stop-color="#e3965d"/>
      <stop offset="1" stop-color="#fdeae3"/>
    </linearGradient>
    <linearGradient id="Dégradé_sans_nom_3-2" data-name="Dégradé sans nom 3" x1="427.35" y1="144.12" x2="344.83" y2="76.97" gradientTransform="translate(10.55 348.89) scale(1.01 -1.01)" xlink:href="#Dégradé_sans_nom_3"/>
  </defs>
  <path class="cls-13" d="m5.7,281.19l191.44,110.56c9.73,5.62,21.73,5.62,31.46,0l264.77-152.86c6.09-3.52,8.16-11.31,4.64-17.4-1.11-1.92-2.71-3.52-4.64-4.64l-196.53-114.09c-5.11-2.96-11.42-2.96-16.53,0L5.7,261.34c-5.48,3.2-7.33,10.23-4.13,15.71,1,1.71,2.42,3.13,4.13,4.13Z"/>
  <path class="cls-12" d="m288.57,265.05l-120.68,45.84s14.27,5.8,60.84,24.19l64.84-60.47"/>
  <path class="cls-6" d="m243.03,76.41c-.77,2.09-2.26,46.71-2.26,46.71l9.04,4.75,5.78-29.63-4.61-17.79"/>
  <path class="cls-7" d="m245.6,287.57c.14-.27.28-.54.43-.81.69-1.2,1.99-3.74,3.36-4.25l13.91-12.23c.74,2.21,1.14,4.51,1.2,6.84,0,3.44.43,14.89-.41,15.81s-2.41,1.95-3.02,1.72-.91-4.92-.91-4.92c-.8,1.5-1.54,3.02-2.2,4.56-1,2.21-1.52,4.3-3.8,5.57s-9.99,3.49-11.19-.35c-.1-.39-.12-.8-.07-1.2.18-3.73,1.1-7.38,2.71-10.75Z"/>
  <path class="cls-7" d="m277.09,284.95c-1.42-.91-2.37-2.4-2.6-4.07-.3-1.59-.26-3.24.12-4.81.49-1.24,1.05-2.44,1.68-3.61.92-1.92,1.73-3.89,2.41-5.91l6.32-19.78c.36.48,2.02,3.69,5.13,4.4s4.4,2.98,3.81,6.08c-.59,3.09-4.4,5.72-3.94,9.3.33,3.02.44,6.07.32,9.11-.29,1.37-.9,2.65-1.78,3.74-.83,1.21-1.85,2.27-3.02,3.14-2.44,1.79-5.44,2.64-8.46,2.41Z"/>
  <path class="cls-7" d="m292.71,256.37c1.2.95,4.06,13.47,3.61,15.02s-2.02,3.45-2.74,3.21-4.65-12.4-4.65-12.4"/>
  <path class="cls-2" d="m249.82,189.02s12.21,29.85,14.44,35.2,13.08,22.37,13.53,31.29c.45,8.92,0,18.53,0,18.53,0,0,5.02,1.96,7.85-1.53,2.83-3.49-.82-9.81,1.2-13.08,2.02-3.27,3.79-3.92-1.2-12.65-4.99-8.72-15.43-62.12-15.43-62.12"/>
  <path class="cls-15" d="m262.47,194.91s1.1,23.33,0,31.4-14.61,56.04-13.74,58.88,5.88,4.14,10.25,0c4.37-4.14,4.36-19.84,6.98-27.47,2.62-7.63,15.92-22.67,15.49-62.58"/>
  <path class="cls-1" d="m290.52,47.51s.9,10.58,6.02,17.19c5.11,6.61,16.75,11.22,13.74,21.55s-8.14,8.2-4.28,16.55-.43,13.24-9.42,14.35-22.54-2.78-26.61-22.71"/>
  <path class="cls-15" d="m282.98,86.25s6.72,26.68,7.88,30.71c1.17,4.03-.67,35.74,0,37.43s7.22,2.52,8.81.84,2.09-31.39,1.59-37.93c-.51-6.55-2.85-29.2-3.19-29.7"/>
  <path class="cls-9" d="m261.31,49.64s-5.72-4.63-12.3-1.4-3.03,18.8-3.03,18.8"/>
  <path class="cls-7" d="m275.24,51.77c.72.14,13.24,7.12,16.01,11.2s9.31,19.06,9.17,30.84c0,0-13.08,4.66-15.04,1.88-1.08-1.53-1.68-6.98-1.68-6.98,0,0-5.67,3.06-5.67,8.29s1.2,9.86,7.03,19.26c5.82,9.4,5.38,21.72.45,34.9-4.93,13.18-4.03,43.9-4.03,43.9,0,0-15.24,8.06-30.69,0,0,0-17.49-45.27-7.83-72.35,8-22.48.65-29.4-.81-40.38-1.46-10.98,13.57-34.9,13.57-34.9l19.53,4.33Z"/>
  <path class="cls-15" d="m260.56,46.22s1.2,4.96-.52,7.67-2.5,11.16,5.21,10.83,9.17-13.15,8.89-14.36-3.19-7.62-3.19-7.62"/>
  <path class="cls-11" d="m261.03,49.5l9.94-3.31s2.91,6.41,3.19,7.62c.07.57.07,1.15,0,1.72-4.93-.46-9.56-2.59-13.13-6.03Z"/>
  <path class="cls-15" d="m254.64,25.42s1.61,8.89.99,11.49,2.73,12.25,5.69,12.73,10.75-2.6,12.48-8.89c1.73-6.29-2.6-15.45-9.63-16.32s-9.53.99-9.53.99Z"/>
  <path class="cls-15" d="m270.04,37.98c.31-1.28.96-2.46,1.89-3.39,1-1.22,2.81-1.4,4.03-.4,0,0,0,0,.01.01,2.2,2.17-1.38,5.63-3.43,6.27-.7.26-1.49-.08-1.78-.77-.61-.34-.91-1.05-.72-1.72Z"/>
  <path class="cls-1" d="m253.81,16.82c-.42,1.37-.61,2.79-.57,4.22,0,2.59.39,6.19,3.13,7.34,4.69,1.97,12.73,1.61,13.72,2.41s2.94,5.25,3.09,8.28c.16,3.03-4.69,5.3-3.21,10.67s4.32,8.23,9.39,7.22c3.62-.55,7.28.74,9.76,3.43,1.02,1.11,1.96,2.29,2.95,3.42.35.41,1.89,1.67,1.93,2.23-.53-7.8-3.04-15.27-3.98-23.03-.78-6.37-1.6-12.95-3.72-19.09-1.99-5.76-4.89-11.11-11.23-12.93-2.69-.53-5.43-.67-8.16-.41-3.36.07-6.67.85-9.71,2.3-1.59.82-2.81,2.24-3.38,3.94Z"/>
  <path class="cls-7" d="m263.7,269.02c-2.21,1.53-4.8,2.41-7.49,2.54-3.83-.08-4.98-1.28-4.98-1.28l.71-4.15s8.42.95,12.36-1.08c.01.01.57,2.59-.6,3.97Z"/>
  <path class="cls-7" d="m286.82,248.93s-1.66,4.06-9.12,5.5l-.73-3.38s7.22-3.98,8.36-4.81c.8.69,1.33,1.65,1.49,2.7Z"/>
  <path class="cls-8" d="m278.95,51.98c.65,0,9.48,4.4,15.09,14.03,5.61,9.63,8.18,33.99,8.77,50.65.59,16.67.59,31.84,0,32.29s-10.83.3-12.37-.89c0,0-2.41-47.51-5.02-52.36l-7.82-18.11"/>
  <path class="cls-8" d="m262.24,117.92c-.49-8-.95-15.91-1.85-23.88l-.16-1.34c0-6.45,0-11.85.69-14.78,1.82-7.69,14.32-26.15,14.32-26.15,0,0,3.48.48,9.74,5.84s-6.59,50.79,12.36,80.16c.81,1.2,4.24,23.06,3.08,24.17s-9.83,4.67-17.44,4.67c-6.02,0-9.5,3.06-17,3.29-.82-17.37-2.67-34.64-3.73-51.98Z"/>
  <path class="cls-6" d="m282.57,81.22c6.63,21.23,1.76,43.58,5.01,65.25.2,1.34-1.85,1.91-2.05.57-3.25-21.66,1.61-44.07-5.01-65.25-.42-1.34,1.64-1.87,2.05-.57Z"/>
  <path class="cls-6" d="m286.9,148.88l14.91-1.2c1.36-.12,1.36,2.01,0,2.13l-14.91,1.2c-1.36.11-1.36-1.96,0-2.13Z"/>
  <path class="cls-8" d="m240.58,113.07c.13-1.3.26-2.59.35-3.9.43-6.16-.45-12.15-.61-18.29-.37-13.24,5.72-24.85,9.84-37.03,2.76-3.49,5.72-6.27,8.42-6.76s-13.55,26.14-13.55,38.05-.37,33.7-2.12,37.64,3.94,43.32,2.12,44.43c-1.58.96-6.02-1.7-8.42-4.42-.7-.78.43-6.32.51-7.5.2-2.95.4-5.9.59-8.86.39-5.91.72-11.81,1.11-17.71.39-5.25,1.22-10.43,1.77-15.66Z"/>
  <path class="cls-8" d="m258.62,47.09s-5.66-2.47-9.63,1.2-4.81,5.08-3.27,17.56"/>
  <polygon class="cls-14" points="271.46 182.8 312.35 167.41 322.7 173.78 278.76 194.37 271.46 182.8"/>
  <polyline class="cls-3" points="322.7 173.78 279.87 190.32 278.11 242.31 322.7 221.93"/>
  <path class="cls-9" d="m297.82,160.65c12.73-.87,15.64,15.42,14.16,24.8-.55,3.37-5.67,1.94-5.13-1.41.83-4.28.34-8.72-1.4-12.72-1.89-3.95-7.97-8.5-10.83-2.53-1.2,2.55-.55,6.8-.4,9.52.22,3.69.58,7.37,1.05,11.04.43,3.38-4.9,3.36-5.32,0-1.07-8.05-5.23-27.81,7.86-28.7Z"/>
  <path class="cls-15" d="m293.18,150.09s-1.28,8.57-2.11,9.99-2.74,4.91-2.08,6.25,2.89-2,3.41-2.74,1.93,1.79,1.93,3.06-1.74,4.19-1.34,5.19,2.17-.08,2.41-.34-.08,1.49.58,2.25,2.83-2,2.83-2c0,0,.08,1.84,1.08,2.13s2.17-2.62,2.17-2.62c0,.62.46,1.14,1.07,1.2,1.08.17,3.42-4.99,3.25-6.82s-3.49-8.24-3.83-9.74-1.1-6.74-1.1-6.74"/>
  <polygon class="cls-5" points="278.11 242.31 270.21 232.76 271.46 182.8 279.87 190.32 278.11 242.31"/>
  <path class="cls-5" d="m322.7,173.78s-13.85,33.9-21.23,34.24-21.59-17.73-21.59-17.73l42.82-16.51Z"/>
  <path class="cls-10" d="m409.49,228.38l-80.57,30.01s8.16,8.5,39.95,27.38l72.21-42.43"/>
  <path class="cls-7" d="m440.77,191c-1.48-3.09-7.81-5.42-15.43-5.42s-14.31,2.45-15.52,5.65c-8.9,12.56-17.81,33.01-6.78,46.72,5.25,6.53,13.5,9.68,21.67,9.81h1.34c8.16-.12,16.41-3.26,21.67-9.81,11.12-13.8,2.11-34.42-6.93-46.96Z"/>
  <ellipse class="cls-16" cx="425.34" cy="192.32" rx="15.75" ry="6.74"/>
  <path class="cls-4" d="m443.72,135.05c-9.71,16.48-15.68,34.89-17.47,53.93-.02-23.03-2.15-46.01-6.37-68.65-.15-.8-1.38-.46-1.23.34,4.7,25.32,6.78,51.05,6.2,76.8,0,.34.27.61.61.61.07,0,.13-.01.19-.03v.56c0,.35.29.64.64.63.35,0,.63-.28.63-.63.43-22.16,6.56-43.83,17.81-62.92.08-.34-.14-.69-.48-.76-.19-.04-.39,0-.54.13Z"/>
  <path class="cls-4" d="m433.77,156.01s9.74-31.31,30.65-42.9c0,0-4.24,6.22-2.26,11.29s5.09,14.13-4.81,19.2c-9.9,5.08-15.54,0-14.69,9.88.85,9.88,4.76,14.69-1.57,19.49-6.34,4.79-11.74,8.98-13.85,19.29.07.06,2.4-25.84,6.53-36.26Z"/>
  <path class="cls-4" d="m424.49,152.72s-4.05-48.11-12.51-60.28c.65,4.65-.18,9.38-2.37,13.53-3.67,6.96-7.6,9.38-5.49,18.45,2.11,9.07,10.71,7.26,9.88,16.32s-7.98,7.42-4.45,18.8c3.53,11.38,15.79,18.97,15.79,18.97"/>
</svg>