<?xml version="1.0" encoding="UTF-8"?>
<svg id="Calque_1" data-name="Calque 1" xmlns="http://www.w3.org/2000/svg" xmlns:xlink="http://www.w3.org/1999/xlink" viewBox="0 0 499.73 395.96">
  <defs>
    <style>
      .cls-1 {
        fill: #bd3c1e;
      }

      .cls-2 {
        fill: #283339;
      }

      .cls-3 {
        fill: #d47f6b;
      }

      .cls-4 {
        fill: #d66448;
      }

      .cls-5 {
        fill: #7ecdea;
      }

      .cls-6 {
        fill: #ce4923;
      }

      .cls-7 {
        fill: #faca65;
      }

      .cls-8 {
        fill: #2b353e;
      }

      .cls-9 {
        fill: #35406e;
      }

      .cls-10 {
        fill: url(#Dégradé_sans_nom_3-2);
      }

      .cls-11 {
        fill: url(#Dégradé_sans_nom_3);
      }

      .cls-12 {
        fill: #1e7b34;
      }

      .cls-13 {
        fill: #ed913d;
      }

      .cls-14 {
        fill: #fdeae3;
      }

      .cls-15 {
        fill: #e6582c;
      }

      .cls-16 {
        fill: url(#Dégradé_sans_nom_3-3);
      }

      .cls-17 {
        fill: #f2f2f2;
      }

      .cls-18 {
        fill: #f1996d;
      }
    </style>
    <linearGradient id="Dégradé_sans_nom_3" data-name="Dégradé sans nom 3" x1="423.95" y1="150.19" x2="341.87" y2="83.39" gradientTransform="translate(10.55 348.89) scale(1.01 -1.01)" gradientUnits="userSpaceOnUse">
      <stop offset="0" stop-color="#e3965d"/>
      <stop offset="1" stop-color="#fdeae3"/>
    </linearGradient>
    <linearGradient id="Dégradé_sans_nom_3-2" data-name="Dégradé sans nom 3" x1="279" y1="117.36" x2="200.1" y2="53.14" xlink:href="#Dégradé_sans_nom_3"/>
    <linearGradient id="Dégradé_sans_nom_3-3" data-name="Dégradé sans nom 3" x1="148.13" y1="85.07" x2="75.75" y2="26.14" xlink:href="#Dégradé_sans_nom_3"/>
  </defs>
  <path class="cls-14" d="m6.97,280.98l190.45,109.86c9.68,5.58,21.61,5.58,31.3,0l263.39-151.88c6.05-3.5,8.12-11.24,4.61-17.29-1.11-1.91-2.7-3.5-4.61-4.61l-195.51-113.37c-5.09-2.94-11.36-2.94-16.45,0L6.97,261.26c-5.45,3.18-7.29,10.17-4.11,15.61.99,1.7,2.41,3.11,4.11,4.11Z"/>
  <path class="cls-11" d="m406.23,222.11l-80.15,29.82s8.12,8.45,39.74,27.21l71.84-42.16"/>
  <path class="cls-10" d="m245.77,255.29l-62.36,27.84s9.68,5.9,41.34,24.71l65.92-39.14"/>
  <path class="cls-16" d="m121.48,282.97l-62.36,27.83s9.68,5.9,41.34,24.71l58.21-36.53"/>
  <path class="cls-9" d="m221.3,108.6s-11.06,3.8-10.5-9.79,12.64-13.68,12.64-13.68c0,0,2.95,19.01-2.14,23.48"/>
  <path class="cls-18" d="m220.92,89.03c-.15-.86-.9-1.49-1.77-1.47-.36-.35-.88-.5-1.37-.38-.05-.07-.11-.14-.18-.21-.14-.13-.29-.23-.46-.31,1.74-.97.1-3.69-1.77-2.79l-1.06.52c.68-1.37-.72-3.33-2.17-2.23-3.46,2.6-7.15,4.9-11.01,6.86-1.61.77-3.1,1.76-4.43,2.95-1.32,1.52-2.51,3.14-3.56,4.85-1.28,1.68,1.58,3.33,2.85,1.67.93-1.22,1.64-2.65,2.67-3.8l.31.13-.07.07c-1.48,1.59.69,3.61,2.33,2.33l1.48-1.14c-.55.64-1.1,1.29-1.64,1.95-1.08,1.33.34,3.76,1.99,2.58l2.73-1.93c-1.07,1.35-2.09,2.74-3.06,4.19-.46.59-.37,1.43.21,1.9-.78.21-1.59.33-2.41.34-2.13,0-5.62,2.64-3.5,2.62,4.67,0,11.22-3.21,14.54-6.28,3.59-3.33,7.38-6.06,9.8-10.32.42-.71.22-1.62-.46-2.09Z"/>
  <path class="cls-8" d="m259.79,255.03c0-4.06.19-8.11.22-12.17l-17.85,3.48s.89,6.9-1.06,9.38c-1.95,2.48-16.83,9.73-18.6,12.03s-2.3,6.62,8.15,6.22c10.45-.4,18.78-7.64,21.08-8.17s7.03-1.16,8.53-2.24c-.09-2.83-.49-5.71-.47-8.54Z"/>
  <path class="cls-8" d="m290.2,260.16c0-4.06.19-8.11.22-12.17l-17.94,3.49s.89,6.9-1.06,9.38-16.83,9.73-18.6,12.03-2.3,6.62,8.15,6.22c10.45-.4,18.78-7.64,21.08-8.17,2.3-.53,7.03-1.16,8.53-2.24-.06-2.85-.38-5.72-.38-8.55Z"/>
  <path class="cls-9" d="m281.97,86.27l-9.05,1.64c.1-1.13.13-2.27.07-3.41-1.89-.1-3.78-.28-5.65-.52-5.29-.65-9.64-5.9-14.6-7.9-2.14,10.23-2.72,32.62-5.23,48.85-3.17,20.57-12.86,116.04-10.11,123.96,0,0-.1,2.86,16.4,3.77,0,0,3.94,2.26,9.73-5.9l5.91-101.66-2.69,109.12c4.99,4.57,12.49,6.71,26.26-.18l6.63-138.19-17.67-29.6Z"/>
  <path class="cls-9" d="m268.47,79.81c1.45.16,2.9.28,4.36.37-1.12-19.38-7.16-62.67-20.08-4.08,5.03,2,10.33,3.25,15.72,3.72Z"/>
  <path class="cls-3" d="m397.42,150.19l1,.26c1.79.46,2.86,2.27,2.4,4.06l-20.51,80.03c-.46,1.78-2.27,2.86-4.06,2.4l-1-.26c-1.79-.46-2.86-2.27-2.4-4.06l20.51-80.03c.46-1.78,2.27-2.86,4.06-2.4Z"/>
  <path class="cls-3" d="m405.71,160.3h1.04c1.84,0,3.34,1.5,3.34,3.34v82.6c0,1.84-1.49,3.33-3.33,3.33h-1.04c-1.84,0-3.34-1.5-3.34-3.34v-82.6c0-1.84,1.49-3.33,3.33-3.33Z"/>
  <path class="cls-3" d="m426.74,148.94h1.03c1.84,0,3.34,1.5,3.34,3.34v82.61c0,1.84-1.49,3.33-3.33,3.33h-1.03c-1.84,0-3.34-1.5-3.34-3.34v-82.61c0-1.84,1.49-3.33,3.33-3.33Z" transform="translate(-32.24 99.35) rotate(-12.79)"/>
  <ellipse class="cls-6" cx="406.7" cy="170.43" rx="32.8" ry="18.49"/>
  <polyline class="cls-6" points="373.9 170.43 373.9 161.82 439.49 161.82 439.49 170.43"/>
  <ellipse class="cls-4" cx="406.7" cy="161.82" rx="32.8" ry="18.49"/>
  <path class="cls-5" d="m395.57,114.5c-1.03.49-1.36,2.29-1.68,3.24-.55,1.58-1.18,3.11-1.79,4.66-4.43,11.19-8.65,22.4-11.03,34.23-.55,2.68-1.23,4.94,1.03,7.02,4.03,3.72,10.33,5.09,15.53,5.99,10.49,1.85,21.3.48,31-3.92,3.33-1.56,4.98-5.36,3.82-8.85-4.3-12.93-14.48-43-16.37-43.24-2.41-.34-9.66-4.26-20.52.87Z"/>
  <ellipse class="cls-6" cx="405.99" cy="115.48" rx="11.49" ry="4.17"/>
  <path class="cls-12" d="m400.75,114.64c-1.16-3.17-2.54-6.25-4.13-9.22h.19c2.67-.99,2.02-5.74,1.55-7.84-.15-.47-.64-.73-1.11-.58-.2.06-.37.19-.48.37-.88,1.56-1.53,3.23-1.93,4.97-.31-.52-.64-1.04-.97-1.56v-.09c.24-.69.47-1.39.69-2.08.11-.32.21-.64.28-.97.58-1.95.82-4,.69-6.03-.01-.15-.06-.3-.13-.43-.19-.38-.62-.58-1.03-.49-1.27.24-1.86,2.06-2.18,3.14-.33,1.2-.51,2.44-.55,3.69-.77-1.11-1.6-2.22-2.51-3.32v-.1c.81-2.43,2.16-6.3.35-8.61-.22-.22-.54-.31-.84-.22-1.21.29-1.48,1.55-1.48,2.64-.05,1.4.02,2.81.22,4.2-1.26-1.45-2.58-2.84-3.97-4.19-.8-.78-2.04.44-1.23,1.22s1.39,1.39,2.07,2.09c-1.87-.49-3.71-.47-4.3,1.09-1.33,3.51,5.71,3.04,7.72,2.8.49.61.98,1.23,1.48,1.86-.63-.06-1.27.07-1.83.37-.97.37-1.46,1.45-1.09,2.41.13.35.36.64.66.86.74.37,1.57.51,2.39.4h2.72c.46.71.92,1.47,1.34,2.17-1.14-.39-2.4-.3-3.47.25-.89.51-1.19,1.65-.68,2.54.11.2.26.37.44.51,1.33,1.11,3.84.56,5.37.35.11-.01.22-.05.32-.1,1.43,2.71,2.67,5.51,3.72,8.39.4,1,2.08.56,1.7-.5Z"/>
  <path class="cls-12" d="m384.25,89.47s-.75-9.07-8.22-9.22c0,0-2.16,8.63,8.22,9.22Z"/>
  <path class="cls-12" d="m409.79,114.36c1.24-3.36,2.72-6.63,4.43-9.78h-.21c-2.83-1.05-2.14-6.09-1.65-8.32.15-.49.67-.77,1.16-.62.22.07.41.21.53.4.93,1.65,1.62,3.42,2.05,5.26.33-.56.68-1.11,1.03-1.65v-.1c-.25-.74-.5-1.47-.72-2.21-.12-.34-.22-.68-.3-1.03-.62-2.07-.87-4.23-.74-6.39.01-.16.06-.32.15-.46.21-.41.66-.62,1.11-.52,1.34.25,1.98,2.18,2.32,3.33.35,1.28.54,2.59.58,3.91.85-1.17,1.72-2.32,2.63-3.45v-.1c-.87-2.58-2.29-6.67-.37-9.13.23-.24.58-.33.9-.24,1.27.31,1.56,1.65,1.62,2.8.06,1.48-.01,2.96-.22,4.42,1.34-1.53,2.74-3.01,4.21-4.42.86-.83,2.16.47,1.3,1.3s-1.48,1.47-2.18,2.23c1.99-.52,3.93-.5,4.55,1.16,1.4,3.73-6.07,3.23-8.18,2.95-.52.65-1.01,1.3-1.48,1.96.67-.06,1.35.07,1.95.38,1.03.4,1.54,1.55,1.14,2.57-.14.36-.38.67-.68.89-.78.39-1.66.54-2.52.43h-2.88c-.49.75-.97,1.47-1.48,2.3,1.21-.41,2.54-.31,3.68.27.94.55,1.25,1.77.7,2.71-.12.2-.27.38-.45.52-1.48,1.18-4.07.59-5.7.38-.12-.02-.24-.06-.35-.12-1.51,2.86-2.83,5.81-3.96,8.85-.61,1.09-2.39.62-1.95-.5Z"/>
  <path class="cls-12" d="m427.25,87.67s.8-9.61,8.71-9.78c.01,0,2.3,9.11-8.71,9.78Z"/>
  <path class="cls-12" d="m404.94,113.55c.76-4.19,1.21-8.43,1.37-12.68h.25c3.54.62,5.91-4.98,6.69-7.56.15-.59-.21-1.19-.8-1.34-.27-.07-.56-.03-.81.1-1.95,1.14-3.72,2.55-5.27,4.19v-2.32l.1-.07c.71-.6,1.4-1.21,2.08-1.83.32-.28.63-.57.92-.88,1.88-1.76,3.43-3.84,4.59-6.13.09-.17.13-.37.13-.56.04-.54-.3-1.03-.81-1.19-1.48-.55-3.35,1.06-4.43,2.03-1.13,1.1-2.12,2.34-2.95,3.67-.16-1.71-.36-3.42-.62-5.12l.12-.09c2.45-2.14,6.35-5.5,5.91-9.16-.1-.38-.4-.68-.78-.78-1.48-.44-2.6.77-3.35,1.9-.95,1.5-1.77,3.07-2.44,4.72-.45-2.38-1-4.74-1.65-7.09-.15-.59-.76-.94-1.34-.78-.59.15-.94.76-.78,1.34.32,1.19.63,2.39.9,3.6-1.74-1.73-3.74-2.88-5.39-1.47-3.68,2.95,4.3,6.95,6.63,7.95.15.97.28,1.96.4,2.95-.65-.47-1.43-.73-2.23-.77-1.82-.07-3.43,1.47-2.55,3.29.55.88,1.35,1.56,2.3,1.98l2.95,1.7c0,1.08.07,2.14.09,3.21-.99-1.16-2.41-1.86-3.93-1.96-1.3-.04-2.38.98-2.42,2.27-.01.32.04.63.16.93.75,2.05,3.84,3.04,5.64,3.8.14.06.28.09.43.09-.17,3.86-.6,7.71-1.28,11.52-.19,1.39,1.93,2.03,2.18.56Z"/>
  <path class="cls-12" d="m402.98,75.63s4.96-10.32-3.09-15.26c0-.01-7.82,8.04,3.09,15.26Z"/>
  <path class="cls-6" d="m292.06,164.29s-1.82-11.34,9.37-15.82,10.95,14.66,10.95,14.66l5.61-2.2s3.28-20.22-16.37-18.82-16.61,24.15-16.61,24.15l7.04-1.98Z"/>
  <path class="cls-18" d="m307.46,136.29l-.15-.71c.05-.23.05-.47,0-.71l-2.35-16.97c-.04-.53-.4-.98-.92-1.14-.06-1-.23-1.98-.49-2.95-1.26-1.34-3.26-1.68-4.9-.86-.83-.9-2.63-1.05-2.86.5-.28,1.84-.54,3.68-.8,5.52h-.09l-.15-.59c-.09-.4-.34-.74-.69-.94-.41-1.37-.74-2.76-1.06-4.13-.49-2.06-3.68-1.19-3.17.87.17.69.34,1.38.52,2.06-1.17-.34-2.61.5-2.05,1.9,1.97,4.94,3.2,10.13,3.66,15.42-.78,3.21-1.48,6.46-1.99,9.73-.32,2.02-.75,4.78,1.8,5.47.87.23,1.77-.28,2.02-1.15.49-2.2.9-4.42,1.23-6.65.25.82.5,1.63.77,2.45.5,1.73,1.1,3.42,1.8,5.07.43.91,1.02,1.71,2.16,1.68.66.03,1.3-.26,1.7-.78.39.97,1.48,1.46,2.47,1.12,1.48-.43,1.82-1.96,1.79-3.55,4.22-1.83,2.47-7.15,1.77-10.68Z"/>
  <path class="cls-5" d="m306.92,109.13c-1.03-11.01-2.76-21.95-5.17-32.75-1.85-8.64-3.84-23-7.03-31.29-2.49-6.46-8.86-8.61-16.08-9.75-7.31-1.29-14.72-1.91-22.14-1.84-.3.01-.6-.04-.89-.15-4.84.77-9.2,3.34-12.22,7.2-6.84,8.6-7.9,13.57-14.07,22.56-5.51,8.03-12.17,15.21-19.75,21.32,5.83,2.14,9.88,8.02,11.52,13.94.91,3.37.98,6.91.22,10.32,9.67-10.69,28.05-32.81,28.05-32.81l.56,19.88c10.14,8.77,26.57,6.43,34.24,4.72l4.43,28.67c7.94,3.08,18.45-.47,18.45-.47,0,0,1.02-6.1-.12-19.54Z"/>
  <path class="cls-6" d="m275.03,178.11c.01-3.58,1.85-6.92,4.87-8.85,11.81-7.49,40.81-25.72,42.72-23.96,2.39,2.21,7.19,43.53,5.34,44.93-1.39,1.05-30.74,15.88-45.12,23.14-2.66,1.34-5.9.27-7.24-2.39-.38-.75-.57-1.58-.57-2.42v-30.45Z"/>
  <path class="cls-17" d="m255.63,33.3s-2.33,14.98,11.23,14.98,14.28-12.14,14.28-12.14c-8.31-2.24-16.91-3.2-25.51-2.85Z"/>
  <path class="cls-9" d="m274.9,31.71s-3.82,3.83-7.29,4.13c-2.95.25-6.44-3.45-7.47-4.63-.07,3.63.52,7.24,1.73,10.66.58.97,1.14,1.62,1.48,1.47,1.34-.53,3.87-4.11,3.87-4.11,0,0,2.82,4.29,4.02,4.14s5.11-7.08,5.11-7.08l-1.43-4.59Z"/>
  <path class="cls-8" d="m283.4,6.54c-1.68-2.27-4.73-3.04-7.28-1.83-.05-.11-.11-.21-.19-.29-1.48-1.67-2.23-3.42-4.61-4.08-2.19-.51-4.47-.43-6.61.24-2.06.51-3.83,1.82-4.93,3.63-.18-.11-.38-.16-.59-.15-4.82.21-8.59,4.23-8.47,9.05.19,4,3.35,8.48,7.5,8.76,1.99.71,4.1.99,6.2.81,1.38-.13,2.4-1.35,2.27-2.73-.04-.47-.22-.92-.51-1.3l.3-.19.24.09c.68.83,1.9.98,2.76.34l.34-.21c.51-.13,1.01-.31,1.48-.55l.58.19-.19.59c-.28,1.03.16,2.11,1.08,2.65.46.21.97.32,1.48.32-1.09,1.58-2.52,2.89-4.19,3.83-2.26,1.14-.97,4.16,1.09,4.34-1,.75-.62,5.34.56,4.67,5.94-3.25,10.23-8.85,11.81-15.42.63-3.08,1.99-10.15-.09-12.77Z"/>
  <path class="cls-18" d="m256.38,15.84c-.58-.1-.61,19.39,7.38,20.64,10.08,1.62,13.86-10.32,13.86-10.32,0,0,1.48-8.85-4.81-11.8s-9.18,2.77-16.43,1.47Z"/>
  <path class="cls-8" d="m256.38,15.84s7.94,1.47,12.19,0c4.25-1.47-1.85,12.18,1.28,12.18s2.95-7.37,5.36-4.62-3.63,11.32-3.63,11.32c0,0,8.56-4.31,10.54-11.69,1.98-7.39-7.47-14.41-16.52-13.67s-9.23,6.47-9.23,6.47Z"/>
  <path class="cls-6" d="m210.81,98.81l.4-.15c1.98-.69,1.15-3.85-.87-3.17l-.72.22c.32-.87-.12-1.84-.99-2.16-.3-.11-.63-.13-.94-.07-1.31.26-2.59.62-3.84,1.08-.58.09-1.15.25-1.73.4-1.85.48-3.68,1.05-5.48,1.7l.09-.15c.83-1.61,3.9-3.77,2.04-5.13-2.58-1.87-7.81,5.63-8.47,7.15-1.35,2.85-3.65,5.14-6.51,6.47-1.56.78,2.73-.94,4.13-.78.15.23.34.43.58.58.3.48.8.8,1.36.87.13.86.93,1.46,1.79,1.33.08-.01.16-.03.23-.05l.8-.27c-.9.67-1.78,1.35-2.66,2.05-1.4,1.12.21,3.23,1.71,2.71.51.47,1.25.58,1.87.28,3.16-1.45,6.27-3.01,9.33-4.67,1.69-.79,3.31-1.73,4.83-2.82.27-.01.54-.08.78-.19,1.4-.49,2.61-1.43,3.43-2.67.43-.93.03-2.04-.9-2.47-.08-.04-.17-.07-.25-.1Z"/>
  <path class="cls-18" d="m199.91,92.91c-.18-.92-1.07-1.52-1.99-1.34-.3.06-.58.2-.81.41-2.25,1.91-4.05,4.29-5.29,6.97-.24.87.28,1.78,1.15,2.02,3.37.74,6.23-3.3,7.81-5.75.48-.66.34-1.58-.31-2.06-.17-.12-.36-.21-.56-.25Z"/>
  <path class="cls-18" d="m205.14,103.5c-.37-.09-.76-.05-1.11.1-.21-.46-.6-.8-1.08-.96-.87-.22-1.77.29-2.02,1.15-.3.76-.57,1.51-.83,2.27-.2-.37-.55-.64-.96-.74-.87-.22-1.77.29-2.02,1.15l-.52,1.98c-.16.9.45,1.75,1.35,1.91.78.13,1.54-.3,1.83-1.04v-.1c.59.72,1.66.83,2.39.24.2-.17.37-.38.47-.62.19.21.45.36.72.43.87.22,1.77-.29,2.02-1.15l.87-2.61c.23-.86-.27-1.75-1.12-2.01Z"/>
  <path class="cls-2" d="m140.58,284.72c-.13-4.97-5.74-5.23-7.26-8.64-.45-1.34-.58-2.77-.37-4.17-1.2,0-2.17-.98-2.16-2.18,0-.05,0-.09,0-.14.15-2.51.64-5,1.48-7.37l-7.75-7.11s-6.22,9.91-6.79,12.06-1.02,18.67-.52,20.26,3.29,1.21,4.69.86c1.4-.35,0-12.98,1.34-12.31s2.16,11.5,3.94,13.92,12.67,1.39,12.67,1.39c0,0,.87-1.59.72-6.56Z"/>
  <path class="cls-6" d="m132.67,270.02c-1.36-9.36,1.85-26.09,1.85-26.09l-12.83.97-2.05,18.74c.24.31.39.68.43,1.08,0,.08,0,.17,0,.25l.24.4c.83.94,3.09,1.06,4.1,1.61,2.24,1.22,2.73,3.26,2.95,5.54.53,4.14.53,10.47,11.81,8.76.04,0-5.14-1.92-6.5-11.27Z"/>
  <path class="cls-2" d="m159.05,292.38c-.38-4.95-5.99-4.95-7.66-8.29-.52-1.32-.71-2.74-.58-4.14-1.2.06-2.21-.87-2.27-2.06,0-.05,0-.1,0-.15.03-2.5.41-4.98,1.12-7.37l-8.09-6.77s-5.73,10.19-6.2,12.37-.12,18.7.47,20.26,3.34,1.05,4.72.63-.58-12.96.75-12.37c1.33.59,2.72,11.38,4.62,13.71,1.9,2.33,12.73.77,12.73.77,0,0,.75-1.64.38-6.59Z"/>
  <path class="cls-6" d="m150.43,278.07c-1.8-9.28.58-26.14.58-26.14l-12.77,1.59-1.15,18.83c.26.29.43.66.49,1.05,0,.08,0,.16,0,.24l.27.38c.87.9,3.13.91,4.18,1.47,2.3,1.11,2.95,3.13,3.19,5.4.74,4.11,1.03,10.44,12.22,8.17.07-.03-5.2-1.71-7-10.99Z"/>
  <path class="cls-7" d="m121.98,81.61s-7.38,2.17-10.82,20.28-5.4,28.28-1.59,33.68,17.07,14.3,17.07,14.3l15.62-20.94"/>
  <path class="cls-7" d="m125.46,124.94s-17.72-37-3.48-43.32c14.23-6.33,31.86,2.95,34.8,12.3,2.94,9.35-1.34,37.44-1.34,37.44,0,0-18.76.53-29.97-6.41Z"/>
  <path class="cls-7" d="m154.38,89.58s12.3,20.64,21.76,17.8c9.46-2.85,12.06-7.09,12.06-7.09,0,0,8.05,8.51,6.63,18.43,0,0-10.33,10.19-20.67,11.61-10.33,1.42-23.27-11.8-23.27-11.8"/>
  <path class="cls-1" d="m120.68,256.26c13.88,7.12,21.82,14.05,37.14,10.51,4.34-1.05,8.22-63.02,8.24-66.2.1-20.39,2.85-33.4-2.32-53.17-.72-2.76-4.83-18.08-7.94-18.48l-30.32-4.01s-5.91,10.32-6.2,32.59c-.18,14.85,1.9,29.6,2.23,44.42,0,8.61-.87,17.2-2.61,25.63-.8,4.32-2.26,9.13-3.29,13.86-.62,3.63-.99,7.3-1.11,10.99,1.95,1.45,4.02,2.74,6.19,3.86Z"/>
  <path class="cls-15" d="m126.55,84.41c-.61-.32-3.57-5.9.41-7.37s17.08-.06,17.08,2.4v6.09c-5.74,2.03-12.06,1.63-17.49-1.12Z"/>
  <path class="cls-6" d="m125.88,123.46c-4.03-9.42-6.31-19.48-6.75-29.71,0-1.09-1.76-1.09-1.7,0,.46,10.53,2.82,20.88,6.98,30.57.44,1.03,1.92.13,1.46-.86Z"/>
  <path class="cls-13" d="m111.38,69.15c-3.54,6.13,4.8,18.48-3.51,21.93-1.9.64-3.9.95-5.91.91-4.21-.03-8.24,1.74-11.06,4.87-4.43,5.26-4.12,13.94-.13,19.41,4.55,6.24,12.28,7.05,18.94,4.08,15.74-6.99,5.68-36.87,17.54-44.87l.58-13.45s-11.91-.69-16.45,7.12Z"/>
  <path class="cls-6" d="m148.29,58.55s-.31,19.35-4.1,21.78-14.28-1.18-14.76-6.55,18.87-15.23,18.87-15.23Z"/>
  <path class="cls-13" d="m137.6,49.27s-6.69-2.62-16.42,2.95c-9.73,5.57-6.54,23.59,4.81,27.28s14.25-7.37,16.39-11.8,5.91-6.03,5.83-8.1-.24-10.65-10.61-10.34Z"/>
  <path class="cls-6" d="m180.96,126.44c-10.78,7.89-25.42-3.66-31.28-12.64-.52-.8-1.8,0-1.27.74,6.26,9.6,21.82,21.56,33.31,13.17.72-.56-.06-1.84-.75-1.27Z"/>
</svg>