<?xml version="1.0" encoding="UTF-8"?>
<svg id="Calque_3" data-name="Calque 3" xmlns="http://www.w3.org/2000/svg" xmlns:xlink="http://www.w3.org/1999/xlink" viewBox="0 0 499.73 395.96">
  <defs>
    <style>
      .cls-1 {
        fill: #009245;
      }

      .cls-2 {
        fill: #fab84c;
      }

      .cls-3 {
        fill: #fff;
      }

      .cls-4 {
        fill: #f39323;
      }

      .cls-5 {
        fill: #36388e;
      }

      .cls-6 {
        opacity: .3;
      }

      .cls-6, .cls-7 {
        isolation: isolate;
      }

      .cls-6, .cls-7, .cls-8 {
        fill: #181917;
      }

      .cls-7 {
        opacity: .67;
      }

      .cls-9 {
        fill: #f6b5ae;
      }

      .cls-10 {
        fill: #ed6c05;
      }

      .cls-11 {
        fill: #283339;
      }

      .cls-12 {
        fill: #f5ba0f;
      }

      .cls-13 {
        fill: url(#Dégradé_sans_nom_3-4);
      }

      .cls-14 {
        fill: #412413;
      }

      .cls-15 {
        fill: #ce4923;
      }

      .cls-16 {
        fill: #f18a73;
      }

      .cls-17 {
        fill: #faca65;
      }

      .cls-18 {
        fill: #322767;
      }

      .cls-19 {
        fill: url(#Dégradé_sans_nom_3-2);
      }

      .cls-20 {
        fill: url(#Dégradé_sans_nom_3);
      }

      .cls-21 {
        fill: #71330f;
      }

      .cls-22 {
        fill: #5c2e2e;
      }

      .cls-23 {
        fill: #fdeae3;
      }

      .cls-24 {
        fill: #e6582c;
      }

      .cls-25 {
        fill: #f08228;
      }

      .cls-26 {
        fill: #8d6965;
      }

      .cls-27 {
        fill: url(#Dégradé_sans_nom_3-3);
      }

      .cls-28 {
        fill: #57413e;
      }

      .cls-29 {
        fill: #945643;
      }
    </style>
    <linearGradient id="Dégradé_sans_nom_3" data-name="Dégradé sans nom 3" x1="216.85" y1="45.91" x2="157.01" y2="-2.79" gradientTransform="translate(10.55 348.89) scale(1.01 -1.01)" gradientUnits="userSpaceOnUse">
      <stop offset="0" stop-color="#e3965d"/>
      <stop offset="1" stop-color="#fdeae3"/>
    </linearGradient>
    <linearGradient id="Dégradé_sans_nom_3-2" data-name="Dégradé sans nom 3" x1="145.2" y1="127.3" x2="62.68" y2="60.15" xlink:href="#Dégradé_sans_nom_3"/>
    <linearGradient id="Dégradé_sans_nom_3-3" data-name="Dégradé sans nom 3" x1="322.05" y1="154.97" x2="226.16" y2="76.94" xlink:href="#Dégradé_sans_nom_3"/>
    <linearGradient id="Dégradé_sans_nom_3-4" data-name="Dégradé sans nom 3" x1="412.61" y1="119" x2="322.9" y2="46" xlink:href="#Dégradé_sans_nom_3"/>
  </defs>
  <g id="Layer_2" data-name="Layer 2">
    <path class="cls-23" d="m5.7,281.19l191.44,110.56c9.73,5.62,21.73,5.62,31.46,0l264.77-152.86c6.09-3.52,8.16-11.31,4.64-17.4-1.11-1.92-2.71-3.52-4.64-4.64l-196.53-114.09c-5.11-2.96-11.42-2.96-16.53,0L5.7,261.34c-5.48,3.2-7.33,10.23-4.13,15.71,1,1.71,2.42,3.13,4.13,4.13Z"/>
    <path class="cls-20" d="m205.4,320.98l-58.43,21.76s5.92,6.17,28.97,19.86l52.37-30.77"/>
    <path class="cls-12" d="m13.01,71.42l1.13,62.2c.05,2.16,1.84,3.88,4,3.83.57-.01,1.14-.15,1.65-.41l52.85-26.33c1.79-.89,2.9-2.74,2.86-4.73l-1.13-62.23c-.04-2.34-1.96-4.2-4.3-4.16-.65.01-1.28.17-1.86.47l-52.4,26.71c-1.74.9-2.82,2.69-2.8,4.65Z"/>
    <path class="cls-19" d="m123.11,245.45l-80.57,30.01s8.16,8.5,39.95,27.38l72.21-42.43"/>
    <path class="cls-12" d="m66.33,80.85c-10.06,2.83-6.59,14.01-13.82,19.95-8.8,7.27-12.17-13.28-22.91-12.02-12.96,1.48-15.46,44.82-15.46,44.82,2.05,4.91,5.65,3.43,5.65,3.43l55.79-27.8-.43-23.94c-2.34-2.69-5.24-4.79-8.82-4.44Z"/>
    <path class="cls-27" d="m287.88,222.31l-83.84,34.96s9.51,10.18,46.57,32.79l82.37-51.99"/>
    <path class="cls-6" d="m66.33,80.85c-10.06,2.83-6.59,14.01-13.82,19.95-8.8,7.27-12.17-13.28-22.91-12.02-12.96,1.48-15.46,44.82-15.46,44.82,2.05,4.91,5.65,3.43,5.65,3.43l55.79-27.8-.43-23.94c-2.34-2.69-5.24-4.79-8.82-4.44Z"/>
    <path class="cls-8" d="m333.09,217.89h0c-1.68,0-4.04,1.78-5.57,2.52l-4.21,1.93s-2.8,10.39-4.45,14.26c-1.65,3.87-7.42,12.18-5.37,15.3,2.86,3.95,8.28,5.04,12.44,2.49,5.3-2.97,5.15-12.58,7.06-16.32,1.59-3.12.85-9.74.85-11.16.13-3.03-.12-6.06-.74-9.02Z"/>
    <path class="cls-8" d="m289.58,198.92h0c-1.68,0-4.04,1.78-5.57,2.52l-4.21,2.06s-1.48,11.37-4.45,14.26-14.17,9.01-12.17,12.12c2.65,4.04,8.02,5.27,12.17,2.8,5.3-2.97,8.76-8.9,12.54-10.39,3.25-1.29,1.87-9.72,2-12.56.39-3.61.28-7.25-.31-10.83Z"/>
    <path class="cls-12" d="m282.01,92.56s-7.21,38.44-6.56,59.51c.65,21.07,1.02,46.88,2.63,58.31,0,0,13.97,1.94,18.71-2.24,0,0,1.41-73.88,1.48-73.46,2.14,9.72,12.17,59.51,13.24,62.76s6.22,29.5,6.22,29.5c6.8,1.7,14,.49,19.87-3.34,0,0-1.74-37.8-4.97-48.42-3.24-10.63-14.51-77.41-20.01-82.63"/>
    <path class="cls-7" d="m282.01,92.56s-7.21,38.44-6.56,59.51c.65,21.07,1.02,46.88,2.63,58.31,0,0,13.97,1.94,18.71-2.24,0,0,1.41-73.88,1.48-73.46,2.14,9.72,12.17,59.51,13.24,62.76s6.22,29.5,6.22,29.5c6.8,1.7,14,.49,19.87-3.34,0,0-1.74-37.8-4.97-48.42-3.24-10.63-14.51-77.41-20.01-82.63"/>
    <path class="cls-4" d="m312.27,95.64s12.36-35.93,7.42-44.15c-4.94-8.22-25.01-14.69-34.61-13.86-9.6.83-3.44,57.6-1.93,58.01s15.64,10.15,29.12,0Z"/>
    <path class="cls-4" d="m316.38,47.8l-14.99-6.22c-2.72,13.18-5.54,26.33-8.46,39.46l20.94,3.68s12.47-6.86,14.4-17.81c1.93-10.95-11.35-18.61-11.89-19.11Z"/>
    <path class="cls-4" d="m286.12,59.27s-2-19.63-2-21.36c-5.83,1.67-11.29,4.46-16.06,8.21-2.44,1.89-4.71,3.98-6.78,6.26-1.42,1.34-2.6,2.92-3.49,4.66-.62,2.07-.68,4.27-.18,6.37.93,4.88,2.58,9.58,4.91,13.97,2.45,5.12,5.47,9.94,9.01,14.37,1.1,1.35,4.63,6.35,6.95,5.55,4.63-1.62,6.54-7,6.54-7,0,0-2.14-4.2-4.45-9.41-1.37-3.07-7.51-10.06-8.34-14.84.61-.82,1.27-1.61,1.97-2.34,3.06-3,8.12-2.45,11.92-4.42Z"/>
    <path class="cls-10" d="m287.87,39.01l2.97,15.46,4.27-4.97,3.24,6.2,8.67-11.75s-13.28-6.2-19.14-4.94Z"/>
    <path class="cls-1" d="m304.51,32.11c-2.24,2.49-6.57,1.37-9.42.73-3.46-.79-7.42-2.88-7.12-7,0-.62-.92-.62-.96,0-.31,4.29,3.58,6.87,7.29,7.81,3.29.83,8.28,2.06,10.91-.85.46-.42-.22-1.14-.68-.68Z"/>
    <path class="cls-9" d="m286.12,23.25s0,20.98,7.7,22.35c8.46,1.48,13.21-8.1,13.21-8.1,0,0,1.08-18.54-7.32-20.17-8.4-1.63-13.36,3.18-13.59,5.92Z"/>
    <path class="cls-9" d="m301.06,35.35s2.03-8.06,4.29-5.4c2.26,2.66-3.65,8.44-3.65,8.44"/>
    <path class="cls-22" d="m303.11,14.7s7.51.82,9.71,6.8c2.2,5.98-3.43,17.81-7.42,19.74l4.88-10.39-.24-7.11-6.93-9.04Z"/>
    <path class="cls-22" d="m312.68,24.17c-.61-4.19-3.38-6.22-7.02-8.37l-.91-.49c.7-.57,1.26-1.29,1.63-2.11.16-.26.07-.6-.19-.75-.09-.05-.19-.08-.29-.08-.96.04-1.86.47-2.48,1.2-.42-.87-1-1.65-1.69-2.32-.23-.21-.58-.2-.8.03-.06.06-.1.13-.12.21-.33.82-.28,1.74.13,2.52-3.78-.79-7.72-.19-11.09,1.69-1.23.74-2.27,1.75-3.04,2.97-1.02-.1-2.05.08-2.97.53-2.04.95-3.2,3.14-2.83,5.36.55,2.52,3.22,3.35,5.49,2.97,1.17-.22,2.26-.73,3.18-1.48-.68,1.14-1.02,2.61,1.19,3.12,3.84.88,5.68-1.41,5.94.5.19,1.56,2.36,2.43,3.93,2.46.12.24.4.88.74,1.75.78-.26,1.6-.3,2.4-.13.22-.24.59-.26.84-.05.04.04.08.08.11.13,1.34,2.29,1.02,4.78.5,7.42,2.08-1.78,3.79-3.96,5.05-6.4,1.8-3.26,2.6-6.99,2.29-10.7Zm-10.92-11.25l.16.24c0,.06,0,.12,0,.18,0,.18.13.36.21.52-.2-.27-.33-.59-.37-.92h0Z"/>
    <polygon class="cls-21" points="292.02 53.16 294.3 57.56 297.47 53.91 295.17 49.51 292.02 53.16"/>
    <path class="cls-21" d="m294.3,57.61s3.18,22.26,5.94,36.79l-4.04,7.73-5.3-6.57s-2.17-15.21,3.4-37.95Z"/>
    <path class="cls-13" d="m387.58,249.24l-76.89,47.84s4.48-9.33,36.27,9.55l72.21-42.43"/>
    <polygon class="cls-12" points="294.76 95.6 291.76 63.14 269.42 63.66 272.55 95.6 294.76 95.6"/>
    <path class="cls-9" d="m302.35,82.84l-9.72-7.27v2.73s-8.79-3.93-9.22-2.21,1.14,7.42,2.63,7.97,7.69,2.51,7.69,2.51l4.9,1.48,3.73-5.21Z"/>
    <path class="cls-4" d="m328.25,63.14s6.32,24.4,1.97,29.4c-4.35,5-32.55-.42-32.81-2.97s3.59-10.73,3.59-10.73l15.75,1.72"/>
    <path class="cls-9" d="m280.23,95.6s5.94-.99,7.08,2.27c.64,1.72-3.92,0-3.92,0l-3.22,9.57c-.95-1.22-1.48-2.71-1.48-4.26-.02-2.19.18-4.38.59-6.53l.95-1.05Z"/>
    <path class="cls-26" d="m105.48,254.78c3.25,2.15,5.68,3.41,5.68,3.41,2.58,0,7.42.56,5.94-2.82,1.72,2.82,3.86,5.36,6.37,7.51,2.8,2.42,18.55,4.67,13.15,14.04-2.79,4.82-30.11-9.01-30.79-12.29-.42-3.27-.53-6.57-.34-9.85Z"/>
    <path class="cls-4" d="m117.28,238.86c-.75,4.68-.89,9.44-.4,14.16.15,1.02.28,2.12.49,3.22l-11.98-2.02v-15.36h11.89Z"/>
    <path class="cls-28" d="m105.48,251.47c3.25,2.15,5.68,3.41,5.68,3.41,2.58,0,7.42.56,5.94-2.82,1.72,2.82,3.86,5.36,6.37,7.51,2.8,2.42,18.62,10.2,12.02,14.31-4.91,3.06-28.98-9.28-29.68-12.56-.41-3.27-.52-6.57-.33-9.85Z"/>
    <path class="cls-28" d="m110.55,255.09c-.12-.88-1.87-5.24-.45-6.25s7.42-2.51,8.06-.8,0,7.66,0,7.66"/>
    <path class="cls-26" d="m128.36,245.85c3.25,2.15,5.68,3.41,5.68,3.41,2.58,0,7.42.56,5.94-2.82,1.72,2.82,3.86,5.36,6.37,7.51,2.8,2.42,18.55,4.67,13.15,14.04-2.79,4.82-30.11-9.01-30.79-12.29-.42-3.27-.53-6.57-.34-9.85Z"/>
    <path class="cls-4" d="m140.16,229.92c-.75,4.68-.89,9.44-.4,14.16.15,1.02.28,2.12.49,3.22l-11.98-2.02v-15.36h11.89Z"/>
    <path class="cls-28" d="m128.36,242.54c3.25,2.15,5.68,3.41,5.68,3.41,2.58,0,7.42.56,5.94-2.82,1.72,2.82,3.86,5.36,6.37,7.51,2.8,2.42,18.62,10.2,12.02,14.31-4.91,3.06-28.98-9.28-29.68-12.56-.41-3.27-.52-6.57-.33-9.85Z"/>
    <path class="cls-28" d="m133.44,246.08c-.12-.88-1.87-5.24-.45-6.25s7.42-2.51,8.06-.8,0,7.66,0,7.66"/>
    <path class="cls-18" d="m148.17,106.69s3.75,90.63-3.67,128.73c0,0-1.48,4.24-19.19,1.78l-1.19,7.92s-12.44,3.38-24.21-1.48c0,0-4.91-88.03,9.84-139.19"/>
    <path class="cls-12" d="m146.87,75.6c3.07-.98-2.97-17.19-3.5-19.22-.28-1.26-.78-2.46-1.48-3.55-2.11-2.88-6.25-1.48-9.2-1.48-3.91.04-7.81.39-11.66,1.04-2.17.4-4.26,1.16-6.17,2.26-6.05,8.49-8.16,19.07-8.8,29.37-.36,5.67-.33,11.38-.3,17.07-.03,3.62.17,7.23.61,10.82.11.86.62,1.61,1.37,2.05,2.15,1.29,4.57,2.04,7.06,2.2,10.67.43,23.6,0,31.94-6.95.53-.72,1.03-1.48,1.48-2.26l-1.37-31.34h.03Z"/>
    <polyline class="cls-14" points="136.72 89.99 136.72 77.95 161.07 67.68 167.97 70.4 167.97 104.31 141.64 116.47 136.06 112.93"/>
    <path class="cls-12" d="m105.76,101.11c-6.28-5.24-10.03-9.77-4.33-29.9,4.85-17.19,19.59-18.77,19.59-18.77"/>
    <path class="cls-4" d="m138.84,34.86s4.69,17.14-3.06,20.9c-7.75,3.75-13.19-1.84-15.54-6.96s-1.48-17.11,8.56-18.33c8.71-1.05,10.03,4.39,10.03,4.39Z"/>
    <path class="cls-29" d="m140.35,31.61c.82-2.09,1.16-5.83-1.29-6.99-1.88-.74-4.02-.34-5.52,1.01-.88-.68-1.89-1.16-2.97-1.41-3.95-1.17-8.21-.24-11.32,2.45-.13.13-.29.24-.46.33-.23.07-.48.1-.73.09-6.08.1-7.42,7-6.35,11.69,1.07,4.89,3.67,9.31,7.42,12.61,1.62,1.32,3.5,2.28,5.52,2.8.25.07.5-.08.56-.32.01-.05.02-.1.01-.15.27-.16.36-.51.2-.77,0,0-.01-.02-.02-.03-.52-1.03-.7-2.19-.52-3.32.03-.16-.03-.33-.15-.45.21-.22.19-.57-.03-.78-.11-.1-.26-.16-.41-.14-1.32.16-2.64-.3-3.58-1.25-.56-.59-1.04-1.75.07-2.03.43-.1.88.02,1.2.33.16.28.36.55.58.79.08.09.19.14.31.16.42.13.95-.21.68-.67-.18-.33-.41-.63-.67-.91-.76-1.28-.52-2.93.58-3.93,1.48-1.26,2.75-.58,4.45-.5,1.02.14,1.99-.49,2.29-1.48,0-.69-.08-1.37-.25-2.03-.06-1.04.53-2,1.48-2.42,1.74-.67,2.86.79,4.14,1.68,1.07.8,2.44,1.08,3.74.76,1.65-.42,2.65-2.1,2.23-3.76-.11-.42-.3-.8-.56-1.14-.14-.21-.4-.3-.64-.21Zm-10.54,2.43c.19-.31.47-.54.8-.68.11-.05.22-.12.31-.19h.1l.16.07c-.51.16-.98.42-1.38.79h0Zm9.81-3.62h-.07c.08-.18.15-.37.21-.56.01.15-.09.36-.13.55h0Z"/>
    <path class="cls-3" d="m127.1,237.18c1.86-24.48,3.29-48.98,4.3-73.51.36-8.9.66-17.78.91-26.62,0-.33-.27-.59-.59-.59s-.59.27-.59.59h0c-.88,31.6-2.48,63.17-4.79,94.7-.13,1.78-.3,3.58-.43,5.36l1.2.07Z"/>
    <path class="cls-4" d="m149.57,95.97s1.13-2.72-.74-3.75-10.58,0-10.58,0l1.68-2.97c.21-.58-.09-.88-.82-.99-2-.36-3.61,2.06-4.45,3.55-.34.55-.57,1.15-.68,1.78,0,.47,0,1.22-.46,1.48-.48,0-.96-.09-1.4-.28-.65,3.19-1.41,6.35-2.05,9.53l3.72,1.01s12.07,3.84,13.28,2.73c.78-.82,1.3-1.85,1.48-2.97l1.48-1.34c1.48-1.34-.67-3.31-.67-3.31,1.19-.09,2.21-.91,2.54-2.06.7-2.02-2.34-2.4-2.34-2.4Z"/>
    <path class="cls-14" d="m139.36,94.71c3.44.55,6.91.82,10.39.82.36,0,.3.55,0,.56-3.48,0-6.95-.27-10.39-.82-.4-.03-.36-.56,0-.56Z"/>
    <path class="cls-14" d="m138.51,98.39c3.67,1.19,7.46,1.95,11.31,2.26.16,0,.28.13.28.28,0,.15-.13.28-.28.28-3.92-.31-7.79-1.08-11.53-2.3-.31-.1-.12-.62.22-.52Z"/>
    <path class="cls-14" d="m138.69,102.32c3.23,1.18,6.57,2.06,9.96,2.64.16,0,.28.13.28.28,0,.15-.13.28-.28.28-3.44-.58-6.83-1.48-10.11-2.67-.39-.1-.25-.62.15-.53Z"/>
    <path class="cls-18" d="m133.36,89.9c-5.23-.93-10.3-2.64-15.03-5.06.26-.12.42-.38.42-.67.04-2.73.36-5.44.95-8.1.22-.99-1.31-1.48-1.48-.42-.63,2.8-.97,5.65-1.01,8.52h0l-.85-.46c-.41-.16-.88.04-1.04.45-.13.32-.03.69.24.91,5.21,2.95,10.86,5.03,16.74,6.16-.74,4.95-1.58,9.84-2.51,14.68-.05.22,0,.45.13.64-2.97-.19-14.6-1.2-24.12-5.51l.61,10.82s14.2,1.22,23.85-5.05c.32.21.76.12.96-.21.05-.08.09-.17.1-.27.99-5.15,1.87-10.33,2.64-15.52.07-.42-.19-.82-.61-.92Z"/>
    <path class="cls-15" d="m287.36,126.65c-.02-.76-.53-1.43-1.26-1.65-.55-.16-1.11-.26-1.68-.28.88-.59,1.17-1.25.56-1.94-3.16-3.7-21.15,4.35-22.94,1.07-.21-.39-.45-.77-.68-1.16s-.34-.82-.55-1.2c-.46-1.38-1.36-2.56-2.55-3.38-.84-.46-1.9-.15-2.36.69-.21.38-.27.82-.17,1.24.64,2.72,1.61,5.36,2.86,7.87-.47,3.93-1.31,7.8-2.51,11.58-.67,2.11,2.64,2.97,3.31.91h0c.21.21.46.36.74.45.5.51,1.25.66,1.91.4.03.95.82,1.7,1.77,1.67.72-.02,1.35-.49,1.58-1.18,1.13-3.52,2.63-7.42,5.94-9.22h1.57c3.53,0,7.06-.12,10.6-.34,1-.09,1.73-.97,1.64-1.97-.03-.31-.13-.6-.3-.85,1.37-.31,2.52-.99,2.51-2.69Z"/>
    <path class="cls-11" d="m212.97,326.92c-.13-5-5.77-5.27-7.3-8.7-.45-1.35-.58-2.79-.37-4.2-1.2,0-2.18-.99-2.17-2.19,0-.05,0-.09,0-.14.15-2.53.65-5.03,1.48-7.42l-7.79-7.2s-6.25,9.97-6.83,12.14-1.02,18.79-.52,20.39,3.31,1.22,4.72.86,0-13.06,1.35-12.39,2.17,11.58,3.96,14.01c1.8,2.43,12.73,1.4,12.73,1.4,0,0,.86-1.56.73-6.56Z"/>
    <path class="cls-15" d="m205.07,312.12c-1.37-9.42,1.86-26.25,1.86-26.25l-12.9.98-2.06,18.86c.25.31.39.69.43,1.08,0,.08,0,.17,0,.25l.24.4c.83.95,3.1,1.07,4.13,1.62,2.26,1.23,2.75,3.28,2.97,5.58.53,4.17.53,10.54,11.87,8.82-.01,0-5.22-1.93-6.53-11.34Z"/>
    <path class="cls-11" d="m231.52,334.62c-.39-4.99-6.03-4.99-7.7-8.34-.52-1.32-.72-2.75-.58-4.17-1.2.06-2.23-.87-2.28-2.07,0-.05,0-.1,0-.15.03-2.51.41-5.01,1.13-7.42l-8.1-6.8s-5.76,10.25-6.23,12.45-.12,18.82.47,20.39,3.35,1.05,4.75.64-.58-13.04.76-12.45,2.73,11.46,4.65,13.8,12.79.77,12.79.77c0,0,.74-1.69.36-6.65Z"/>
    <path class="cls-15" d="m222.88,320.29c-1.81-9.33.58-26.31.58-26.31l-12.84,1.6-1.1,18.89c.26.3.43.66.49,1.05,0,.08,0,.16,0,.24l.27.39c.88.91,3.15.92,4.2,1.48,2.32,1.11,2.97,3.15,3.21,5.43.74,4.14,1.04,10.51,12.29,8.22,0-.04-5.3-1.72-7.09-11Z"/>
    <path class="cls-17" d="m194.27,122.51s-7.42,2.18-10.88,20.41c-3.46,18.22-5.43,28.46-1.6,33.9s17.16,14.4,17.16,14.4l15.7-21.07"/>
    <path class="cls-17" d="m197.77,166.11s-17.81-37.24-3.5-43.6c14.31-6.37,32.03,2.97,34.98,12.38,2.95,9.41-1.35,37.68-1.35,37.68,0,0-18.83.53-30.13-6.46Z"/>
    <path class="cls-17" d="m226.83,130.52s12.36,20.78,21.88,17.91l8.09-18.37s16.32,5.06,14.84,15.05c0,0-14.59,24.99-25.05,26.42-10.46,1.42-23.39-11.87-23.39-11.87"/>
    <path class="cls-12" d="m192.95,298.28c13.95,7.17,21.93,14.14,37.34,10.58,4.36-1.05,8.27-63.43,8.28-66.62.1-20.52,2.86-33.61-2.33-53.52-.73-2.78-4.85-18.19-7.98-18.6l-30.48-4.04s-5.94,10.39-6.23,32.8c-.18,14.94,1.91,29.79,2.24,44.7,0,8.66-.88,17.31-2.63,25.79-.8,4.35-2.27,9.19-3.31,13.95-.62,3.66-1,7.35-1.11,11.06,1.96,1.46,4.04,2.76,6.22,3.89Z"/>
    <path class="cls-24" d="m198.87,125.33c-.61-.33-3.59-5.94.42-7.42s17.2,0,17.11,2.4,0,6.07,0,6.07c-5.74,2.05-12.07,1.67-17.53-1.05Z"/>
    <path class="cls-15" d="m198.17,164.62c-4.04-9.46-6.34-19.57-6.78-29.84,0-1.1-1.77-1.1-1.71,0,.46,10.59,2.84,21.02,7.02,30.76.43.95,1.9.07,1.47-.92Z"/>
    <path class="cls-29" d="m183.61,109.97c-3.56,6.17,4.82,18.6-3.53,22.07-1.91.65-3.92.96-5.94.92-4.25-.05-8.32,1.74-11.17,4.9-4.45,5.3-4.14,14.02-.13,19.53,4.57,6.28,12.35,7.09,19.04,4.11,15.82-7.03,5.71-37.1,17.63-45.16l.58-13.53s-11.93-.67-16.47,7.17Z"/>
    <path class="cls-15" d="m220.7,99.3s-.31,19.47-4.13,21.92-14.35-1.19-14.84-6.59,18.97-15.33,18.97-15.33Z"/>
    <path class="cls-29" d="m209.96,89.96s-6.72-2.64-16.5,2.97-6.57,23.74,4.84,27.46c11.41,3.71,14.32-7.42,16.47-11.87s5.94-6.07,5.86-8.15-.22-10.71-10.67-10.4Z"/>
    <ellipse class="cls-25" cx="403.19" cy="81.32" rx="18.31" ry="28.54" transform="translate(-6.52 45.09) rotate(-6.35)"/>
    <path class="cls-28" d="m397.51,77.21l3.87,3.87v-16.78c0-1.2.98-2.18,2.18-2.18s2.18.98,2.18,2.18v22.16c-.1,1.22-1.17,2.12-2.39,2.02-.47-.04-.91-.23-1.26-.53h0l-7.6-7.6c-.79-.91-.69-2.29.22-3.08.8-.69,1.97-.71,2.79-.05Z"/>
    <path class="cls-12" d="m373.66,206.01v56.26s54.06,2.97,54.06,0v-56.26"/>
    <ellipse class="cls-12" cx="400.7" cy="261.8" rx="27.04" ry="12.35"/>
    <ellipse class="cls-5" cx="400.7" cy="206.03" rx="27.04" ry="12.35"/>
    <path class="cls-16" d="m383.84,215.63l.19.1c1.04.36,2.09.68,3.16.96l-7.42-61.6c-1.29-.49-2.74-.22-3.77.7l7.54,59.73.3.1Z"/>
    <path class="cls-16" d="m392.24,217.55l2.29-57.88c-1.19-.69-2.67-.65-3.83.09l-1.87,57.24c1.13.25,2.27.43,3.41.55Z"/>
    <path class="cls-2" d="m400.7,218.38l7.42-60.28,15.11,7.95-6.08,50.64c-5.33,1.55-10.91,2.13-16.44,1.69Z"/>
  </g>
</svg>